<!DOCTYPE svg PUBLIC "-//W3C//DTD SVG 1.1//EN" "http://www.w3.org/Graphics/SVG/1.1/DTD/svg11.dtd">
<!-- Uploaded to: SVG Repo, www.svgrepo.com, Transformed by: SVG Repo Mixer Tools -->
<svg width="256px" height="256px" viewBox="-4.8 -4.8 57.60 57.60" xmlns="http://www.w3.org/2000/svg" fill="#000000" stroke="#000000" transform="matrix(1, 0, 0, 1, 0, 0)">
<g id="SVGRepo_bgCarrier" stroke-width="0" transform="translate(0,0), scale(1)">
<path transform="translate(-4.8, -4.8), scale(3.5999999999999996)" fill="#8c14db" d="M9.166.33a2.25 2.25 0 00-2.332 0l-5.25 3.182A2.25 2.25 0 00.5 5.436v5.128a2.25 2.25 0 001.084 1.924l5.25 3.182a2.25 2.25 0 002.332 0l5.25-3.182a2.25 2.25 0 001.084-1.924V5.436a2.25 2.25 0 00-1.084-1.924L9.166.33z" strokewidth="0"/>
</g>
<g id="SVGRepo_tracerCarrier" stroke-linecap="round" stroke-linejoin="round" stroke="#CCCCCC" stroke-width="0.096"/>
<g id="SVGRepo_iconCarrier">
<defs>
<style>.a{fill:none;stroke:#fffafa;stroke-linecap:round;stroke-linejoin:round;}</style>
</defs>
<path class="a" d="M17.54,34.22A47.42,47.42,0,0,1,14.68,38C7.3,37.79,4.5,33,4.5,33A44.83,44.83,0,0,1,9.31,13.48,16.47,16.47,0,0,1,18.69,10l1,2.31"/>
<path class="a" d="M17.85,22.67a3.48,3.48,0,0,0-3.37,3.9,3.38,3.38,0,0,0,3.31,3.22,3.53,3.53,0,0,0,3.43-3.9A3.45,3.45,0,0,0,17.85,22.67Z"/>
<path class="a" d="M12.2,14.37a28.19,28.19,0,0,1,8.16-2.18A23.26,23.26,0,0,1,24,12a23.26,23.26,0,0,1,3.64.21,28.19,28.19,0,0,1,8.16,2.18m-7.47-2.09,1-2.31a16.47,16.47,0,0,1,9.38,3.51A44.83,44.83,0,0,1,43.5,33S40.7,37.79,33.32,38a47.42,47.42,0,0,1-2.86-3.81m6.46-2.9a29.63,29.63,0,0,1-8.64,3.49,21.25,21.25,0,0,1-4.28.4h0a21.25,21.25,0,0,1-4.28-.4,29.63,29.63,0,0,1-8.64-3.49"/>
<path class="a" d="M30.15,22.67a3.48,3.48,0,0,1,3.37,3.9,3.38,3.38,0,0,1-3.31,3.22,3.53,3.53,0,0,1-3.43-3.9A3.45,3.45,0,0,1,30.15,22.67Z"/>
</g>
</svg>