<svg id="visual" viewBox="0 0 900 600" width="900" height="600" xmlns="http://www.w3.org/2000/svg" xmlns:xlink="http://www.w3.org/1999/xlink" version="1.1"><rect x="0" y="0" width="900" height="600" fill="#1b1d21"></rect><path d="M0 333L75 333L75 271L150 271L150 329L225 329L225 325L300 325L300 271L375 271L375 271L450 271L450 351L525 351L525 342L600 342L600 280L675 280L675 334L750 334L750 267L825 267L825 268L900 268L900 302L900 601L900 601L825 601L825 601L750 601L750 601L675 601L675 601L600 601L600 601L525 601L525 601L450 601L450 601L375 601L375 601L300 601L300 601L225 601L225 601L150 601L150 601L75 601L75 601L0 601Z" fill="#9c88ff"></path><path d="M0 428L75 428L75 366L150 366L150 426L225 426L225 438L300 438L300 342L375 342L375 369L450 369L450 400L525 400L525 404L600 404L600 419L675 419L675 405L750 405L750 356L825 356L825 426L900 426L900 450L900 601L900 601L825 601L825 601L750 601L750 601L675 601L675 601L600 601L600 601L525 601L525 601L450 601L450 601L375 601L375 601L300 601L300 601L225 601L225 601L150 601L150 601L75 601L75 601L0 601Z" fill="#8054e8"></path><path d="M0 519L75 519L75 473L150 473L150 488L225 488L225 494L300 494L300 466L375 466L375 506L450 506L450 546L525 546L525 533L600 533L600 493L675 493L675 504L750 504L750 457L825 457L825 446L900 446L900 488L900 601L900 601L825 601L825 601L750 601L750 601L675 601L675 601L600 601L600 601L525 601L525 601L450 601L450 601L375 601L375 601L300 601L300 601L225 601L225 601L150 601L150 601L75 601L75 601L0 601Z" fill="#6a00cc"></path></svg>