<svg id="visual" viewBox="0 0 900 600" width="900" height="600" xmlns="http://www.w3.org/2000/svg" xmlns:xlink="http://www.w3.org/1999/xlink" version="1.1"><rect width="900" height="600" fill="#1B1D21"></rect><g><g transform="translate(594 390)"><path d="M0 -65.7L56.9 -32.8L56.9 32.8L0 65.7L-56.9 32.8L-56.9 -32.8Z" stroke="#6e5ed6" fill="none" stroke-width="2"></path></g><g transform="translate(212 300)"><path d="M0 -9L7.8 -4.5L7.8 4.5L0 9L-7.8 4.5L-7.8 -4.5Z" stroke="#6e5ed6" fill="none" stroke-width="2"></path></g><g transform="translate(246 509)"><path d="M0 -38L32.9 -19L32.9 19L0 38L-32.9 19L-32.9 -19Z" stroke="#6e5ed6" fill="none" stroke-width="2"></path></g><g transform="translate(299 107)"><path d="M0 -64L55.4 -32L55.4 32L0 64L-55.4 32L-55.4 -32Z" stroke="#6e5ed6" fill="none" stroke-width="2"></path></g><g transform="translate(96 404)"><path d="M0 -25L21.7 -12.5L21.7 12.5L0 25L-21.7 12.5L-21.7 -12.5Z" stroke="#6e5ed6" fill="none" stroke-width="2"></path></g><g transform="translate(313 395)"><path d="M0 -9L7.8 -4.5L7.8 4.5L0 9L-7.8 4.5L-7.8 -4.5Z" stroke="#6e5ed6" fill="none" stroke-width="2"></path></g><g transform="translate(652 73)"><path d="M0 -23L19.9 -11.5L19.9 11.5L0 23L-19.9 11.5L-19.9 -11.5Z" stroke="#6e5ed6" fill="none" stroke-width="2"></path></g><g transform="translate(471 453)"><path d="M0 -14L12.1 -7L12.1 7L0 14L-12.1 7L-12.1 -7Z" stroke="#6e5ed6" fill="none" stroke-width="2"></path></g><g transform="translate(730 428)"><path d="M0 -40L34.6 -20L34.6 20L0 40L-34.6 20L-34.6 -20Z" stroke="#6e5ed6" fill="none" stroke-width="2"></path></g></g></svg>