<svg xmlns="http://www.w3.org/2000/svg" xmlns:xlink="http://www.w3.org/1999/xlink" version="1.1" width="256" height="256" viewBox="0 0 256 256" xml:space="preserve">

<defs>
</defs>
<g style="stroke: none; stroke-width: 0; stroke-dasharray: none; stroke-linecap: butt; stroke-linejoin: miter; stroke-miterlimit: 10; fill: none; fill-rule: nonzero; opacity: 1;" transform="translate(1.4065934065934016 1.4065934065934016) scale(2.81 2.81)" >
	<circle cx="45" cy="45" r="45" style="stroke: none; stroke-width: 1; stroke-dasharray: none; stroke-linecap: butt; stroke-linejoin: miter; stroke-miterlimit: 10; fill: rgb(230,62,50); fill-rule: nonzero; opacity: 1;" transform="  matrix(1 0 0 1 0 0) "/>
	<path d="M 67.961 23.608 c -0.012 -0.059 -0.034 -0.114 -0.051 -0.171 c -0.02 -0.068 -0.036 -0.136 -0.063 -0.202 c -0.028 -0.067 -0.066 -0.128 -0.101 -0.192 c -0.028 -0.051 -0.05 -0.104 -0.083 -0.153 c -0.147 -0.219 -0.335 -0.408 -0.555 -0.554 c -0.047 -0.032 -0.099 -0.053 -0.148 -0.081 c -0.065 -0.036 -0.127 -0.075 -0.196 -0.103 c -0.065 -0.027 -0.133 -0.042 -0.2 -0.062 c -0.058 -0.017 -0.113 -0.039 -0.173 -0.051 C 66.262 22.014 66.131 22 66 22 H 46.175 c -1.104 0 -2 0.896 -2 2 s 0.896 2 2 2 h 14.997 L 26 61.172 V 46.175 c 0 -1.104 -0.896 -2 -2 -2 s -2 0.896 -2 2 V 66 c 0 0.131 0.014 0.262 0.039 0.392 c 0.012 0.06 0.034 0.115 0.051 0.173 c 0.02 0.067 0.035 0.135 0.062 0.2 c 0.028 0.069 0.067 0.131 0.103 0.196 c 0.027 0.049 0.049 0.101 0.081 0.148 c 0.146 0.219 0.335 0.408 0.554 0.555 c 0.049 0.033 0.103 0.056 0.155 0.084 c 0.063 0.034 0.123 0.072 0.19 0.1 c 0.066 0.027 0.135 0.043 0.203 0.063 c 0.057 0.017 0.112 0.039 0.171 0.051 C 23.738 67.986 23.869 68 24 68 h 19.826 c 1.104 0 2 -0.896 2 -2 s -0.896 -2 -2 -2 H 28.828 L 64 28.828 v 14.998 c 0 1.104 0.896 2 2 2 s 2 -0.896 2 -2 V 24 C 68 23.869 67.986 23.738 67.961 23.608 z" style="stroke: none; stroke-width: 1; stroke-dasharray: none; stroke-linecap: butt; stroke-linejoin: miter; stroke-miterlimit: 10; fill: rgb(255,255,255); fill-rule: nonzero; opacity: 1;" transform=" matrix(1 0 0 1 0 0) " stroke-linecap="round" />
</g>
</svg>