<svg id="visual" viewBox="0 0 900 600" width="900" height="600" xmlns="http://www.w3.org/2000/svg" xmlns:xlink="http://www.w3.org/1999/xlink" version="1.1"><path d="M0 139L82 139L82 127L164 127L164 103L245 103L245 79L327 79L327 55L409 55L409 145L491 145L491 55L573 55L573 157L655 157L655 79L736 79L736 91L818 91L818 55L900 55L900 127L900 0L900 0L818 0L818 0L736 0L736 0L655 0L655 0L573 0L573 0L491 0L491 0L409 0L409 0L327 0L327 0L245 0L245 0L164 0L164 0L82 0L82 0L0 0Z" fill="#9c88ff"></path><path d="M0 283L82 283L82 241L164 241L164 289L245 289L245 355L327 355L327 223L409 223L409 355L491 355L491 265L573 265L573 247L655 247L655 283L736 283L736 307L818 307L818 169L900 169L900 379L900 125L900 53L818 53L818 89L736 89L736 77L655 77L655 155L573 155L573 53L491 53L491 143L409 143L409 53L327 53L327 77L245 77L245 101L164 101L164 125L82 125L82 137L0 137Z" fill="#b8a5ff"></path><path d="M0 367L82 367L82 325L164 325L164 397L245 397L245 421L327 421L327 337L409 337L409 415L491 415L491 349L573 349L573 307L655 307L655 391L736 391L736 391L818 391L818 265L900 265L900 421L900 377L900 167L818 167L818 305L736 305L736 281L655 281L655 245L573 245L573 263L491 263L491 353L409 353L409 221L327 221L327 353L245 353L245 287L164 287L164 239L82 239L82 281L0 281Z" fill="#d1c2ff"></path><path d="M0 517L82 517L82 511L164 511L164 529L245 529L245 523L327 523L327 517L409 517L409 553L491 553L491 559L573 559L573 565L655 565L655 523L736 523L736 505L818 505L818 553L900 553L900 523L900 419L900 263L818 263L818 389L736 389L736 389L655 389L655 305L573 305L573 347L491 347L491 413L409 413L409 335L327 335L327 419L245 419L245 395L164 395L164 323L82 323L82 365L0 365Z" fill="#e9e0ff"></path><path d="M0 601L82 601L82 601L164 601L164 601L245 601L245 601L327 601L327 601L409 601L409 601L491 601L491 601L573 601L573 601L655 601L655 601L736 601L736 601L818 601L818 601L900 601L900 601L900 521L900 551L818 551L818 503L736 503L736 521L655 521L655 563L573 563L573 557L491 557L491 551L409 551L409 515L327 515L327 521L245 521L245 527L164 527L164 509L82 509L82 515L0 515Z" fill="#ffffff"></path></svg>