<?xml version="1.0" encoding="UTF-8" standalone="no"?>
<svg
   xmlns:dc="http://purl.org/dc/elements/1.1/"
   xmlns:cc="http://creativecommons.org/ns#"
   xmlns:rdf="http://www.w3.org/1999/02/22-rdf-syntax-ns#"
   xmlns:svg="http://www.w3.org/2000/svg"
   xmlns="http://www.w3.org/2000/svg"
   viewBox="0 0 2800 2800"
   height="2800"
   width="2800"
   xml:space="preserve"
   id="svg2"
   version="1.1"><metadata
     id="metadata8"><rdf:RDF><cc:Work
         rdf:about=""><dc:format>image/svg+xml</dc:format><dc:type
           rdf:resource="http://purl.org/dc/dcmitype/StillImage" /></cc:Work></rdf:RDF></metadata><defs
     id="defs6" /><g
     transform="matrix(1.3333333,0,0,-1.3333333,0,2800)"
     id="g10"><g
       transform="scale(0.1)"
       id="g12"><g
         transform="scale(1.28834)"
         id="g14"><path
           id="path16"
           style="fill:#ffffff;fill-opacity:1;fill-rule:evenodd;stroke:none"
           d="M 0,16300 H 16300 V 0 H 0 v 16300" /></g><path
         id="path18"
         style="fill:#ffffff;fill-opacity:1;fill-rule:evenodd;stroke:none"
         d="m 10500,2884.1 c 2955.3,881 5214.9,3944.9 5582.1,7722 -1353.8,1918.2 -3352.5,3131.2 -5582.1,3131.2 -2229.58,0 -4228.28,-1213 -5581.87,-3131.2 367.02,-3777.1 2626.88,-6841 5581.87,-7722" /><path
         id="path20"
         style="fill:#000000;fill-opacity:1;fill-rule:nonzero;stroke:none"
         d="m 10500,13607.5 c -1070.75,0 -2087.33,-285.9 -3001.67,-798.7 C 6558.44,12281.4 5725.5,11514.1 5051.77,10570.6 5238.47,8733.6 5878.31,7070.2 6829.6,5754.1 7786.44,4430.5 9058.34,3459.5 10500,3020 c 1441.7,439.5 2713.8,1410.5 3670.7,2734.1 951,1316.1 1590.8,2979.5 1777.5,4816.5 -673.7,943.5 -1506.4,1710.8 -2446.5,2238.2 -914.4,512.8 -1930.9,798.7 -3001.7,798.7 z m 0,-10858.9 -37,11.4 C 8950.55,3210.6 7617.8,4221.6 6619.28,5603 5634.1,6966 4973.97,8691.1 4789.22,10594.2 l -4.17,48.6 26.95,38.1 c 700.96,993.2 1572.52,1800.6 2559.37,2354.3 952.95,534.3 2012.31,832.1 3128.63,832.1 1116.3,0 2176,-297.8 3128.6,-832.1 986.9,-553.7 1858.7,-1361.1 2559.7,-2354.3 l 26.9,-38.1 -4.1,-48.6 C 16026,8691.1 15366.2,6966 14380.7,5603 13382.2,4221.6 12049.5,3210.6 10537.2,2760 l -37.2,-11.4" /><path
         id="path22"
         style="fill:#d7e0e6;fill-opacity:1;fill-rule:evenodd;stroke:none"
         d="M 5603.54,10423.6 C 5793.57,8860.3 6344.79,7325.8 7273.57,6048.1 8084.55,4932.9 9184.76,4021.6 10500,3578.2 c 1315.2,443.4 2415.7,1354.7 3226.4,2469.9 928.8,1277.7 1480,2812.2 1670.1,4375.5 -1176.1,1562.5 -2895,2652.2 -4896.5,2652.2 -2001.48,0 -3720.41,-1089.7 -4896.46,-2652.2" /><g
         transform="scale(1.11972)"
         id="g24"><path
           id="path26"
           style="fill:#000000;fill-opacity:1;fill-rule:evenodd;stroke:none"
           d="m 12435.4,13738.6 c 113,-359.8 213.9,-725.5 298.3,-1092.7 84.6,-369 232.2,-1067.2 148.2,-1436.4 -16.9,-74.2 -51.2,-153.4 -82.5,-222.6 -44.1,-98.5 -93.2,-195.5 -143.1,-291.3 -125.3,-241.2 -258.6,-478.9 -390.6,-716.31 -99.4,-179.43 -199.5,-358.58 -296.5,-539.43 -54.8,-102.26 -110.9,-206.93 -161.7,-312.85 31.7,-26.61 63.5,-52.87 95.2,-79.39 213.2,-177.19 422.3,-358.84 620.6,-552.82 451.5,-441.72 882.4,-980.16 1189.1,-1533.15 133.1,-239.97 238.1,-539.42 263,-813.15 14.1,-152.63 4.4,-311.15 -49.4,-455.83 -59.3,-160.49 -166.3,-286.59 -316.6,-369.91 -117.9,-65.47 -250.9,-97.79 -384.4,-109.94 -282.7,-25.81 -657.3,65.55 -929.7,140.93 -350.4,97.26 -712.1,221.3 -1049.5,358.57 l -12,4.91 c -262.3,-99.49 -532.5,-177.36 -807.4,-233.18 -345.1,-70.02 -696.74,-104.94 -1049.06,-104.94 -352.05,0 -703.67,34.92 -1049.06,104.94 -445.14,90.29 -876.63,238.9 -1283.06,440.91 -139.68,-176.65 -299.48,-339.46 -477.13,-477.17 -371.2,-287.04 -808.64,-452.52 -1282.81,-408.85 -84.61,7.68 -167.98,29.02 -242.91,70.19 -246.14,135.48 -287.58,408.14 -255.08,664.99 36.24,288.02 161.79,600.42 283.62,862.98 113.14,243.9 242.17,482.09 378.14,714.29 228.27,390.1 481.36,775.64 750.32,1139.39 2.23,8.49 4.46,16.61 6.7,25.1 l 4.71,19.11 c 43.18,167.45 77.17,336.15 99.75,507.62 17.12,131.73 26.55,263.02 35.73,395.28 l 5.22,79.4 c 4.96,70.46 10.66,144.94 25.8,214.16 11.16,51.08 27.29,95.25 50.86,141.15 17.62,42.67 33.25,86.09 47.89,129.8 -127.78,229.7 -256.31,460 -377.4,693.2 -49.87,95.8 -99,192.8 -143.41,291.3 -31.27,69.2 -65.26,148.4 -82.13,222.6 -84.36,369.2 63.28,1067.4 147.88,1436.4 84.36,367.2 185.35,732.9 298.25,1092.7 -108.19,280.2 -200.73,565.2 -274.42,856.5 -92.56,366.3 -154.84,738.2 -190.57,1114.1 l -19.6,204.7 205.7,-1.7 c 285.09,-2.3 570.68,-9.7 855.03,-33.3 247.63,-20.6 492.77,-53.6 736.43,-102.5 240.68,162.8 507.91,288.4 784.81,375.2 309.91,97.5 635.93,148.4 960.74,148.4 324.81,0 650.86,-50.9 960.76,-148.4 276.9,-86.8 544.1,-212.4 785,-375.2 243.5,48.9 488.6,81.9 736.5,102.5 284.1,23.6 569.7,31 854.7,33.3 l 205.7,1.7 -19.5,-204.7 c -35.5,-375.9 -97.8,-747.8 -190.6,-1114.1 -73.7,-291.3 -166,-576.3 -274.5,-856.5" /></g><g
         transform="scale(1.0781)"
         id="g28"><path
           id="path30"
           style="fill:#0b172a;fill-opacity:1;fill-rule:evenodd;stroke:none"
           d="M 9739.39,16300 C 7645.03,15739.8 5930.02,12626.2 6414.24,11572.4 7077.83,10128 8989.22,8991.03 9739.39,8577.15 c 750.21,413.88 2661.81,1550.85 3325.41,2995.25 484,1053.8 -1231.1,4167.4 -3325.41,4727.6" /></g><path
         id="path32"
         style="fill:#ffffff;fill-opacity:1;fill-rule:evenodd;stroke:none"
         d="m 10500,10812.6 -957.12,128 -1726.43,-1865.9 13.61,-8.9 h -38.62 V 6872.1 c 805.99,-435.6 1728.38,-682.9 2708.56,-682.9 980.5,0 1902.9,247.3 2708.6,682.9 v 2193.7 h -38.7 l 13.7,8.9 -1726.5,1865.9 -957.1,-128" /><path
         id="path34"
         style="fill:#032e48;fill-opacity:1;fill-rule:evenodd;stroke:none"
         d="m 7401.65,7103.3 c 577.33,-374 1226.61,-646.6 1922.58,-792.4 46.95,922.9 121.41,2189.6 121.41,2189.6 L 8279.03,8638.8 7401.65,7103.3" /><path
         id="path36"
         style="fill:#d7e0e6;fill-opacity:1;fill-rule:evenodd;stroke:none"
         d="m 10861.2,9402.6 c 586.2,89.2 1066.6,391.4 1286,792.3 l -567.8,613.8 c 3.9,-26.1 8,-52.3 12.5,-78.1 l 1.9,-11.1 c 3.1,-19.5 1.4,-36.7 -5.5,-54.7 l -4.2,-10.9 c -105.9,-273.9 -263.4,-551.8 -418.7,-800.7 -90.3,-145 -185.6,-287.3 -285.9,-425.6 l -18.3,-25" /><path
         id="path38"
         style="fill:#000000;fill-opacity:1;fill-rule:evenodd;stroke:none"
         d="m 9276.44,6321.2 c 27.23,-5.9 54.45,-12 82.24,-17.5 41.95,1031.5 128.08,2190.1 128.36,2194 l -82.8,5.8 c -0.28,-3.9 -85.57,-1150.7 -127.8,-2182.3" /><path
         id="path40"
         style="fill:#d7e0e6;fill-opacity:1;fill-rule:evenodd;stroke:none"
         d="m 9420.91,10808.9 -568.16,-614 c 219.49,-400.9 700.13,-703.1 1286.05,-792.3 l -18.3,25 c -100.3,138.3 -195.61,280.6 -285.9,425.6 -155.03,248.9 -312.28,526.8 -418.41,800.7 l -4.17,10.6 c -7.23,18.3 -8.89,35.8 -5.56,55 l 1.95,11.1 c 4.44,26.1 8.61,52.2 12.5,78.3" /><path
         id="path42"
         style="fill:#000000;fill-opacity:1;fill-rule:nonzero;stroke:none"
         d="m 9593.16,10912 c -32.78,-5.8 -61.12,-16.6 -87.23,-33 -27.23,-17.3 -52.51,-40.9 -78.35,-72 l -404.24,-486.8 363.95,-1715.3 c 145.31,140.9 541.22,518.7 647.91,562.9 75,30.9 305.9,-110.3 327,-219.5 -74.2,54.2 -143.6,97.5 -200.9,122.8 -43.9,19.2 -76.9,27.2 -94.4,20 -116.45,-48 -674.05,-596.2 -675.72,-597.9 l -53.89,-53 -15.84,73.9 -383.41,1808.6 -4.16,19.5 12.78,15.6 417.3,502.3 c 31.39,37.8 63.06,66.9 97.79,88.9 35.56,22.8 73.9,37.2 116.97,44.7 l 14.44,-81.7" /><path
         id="path44"
         style="fill:#000000;fill-opacity:1;fill-rule:nonzero;stroke:none"
         d="m 11406.8,10912 c 32.8,-5.8 61.2,-16.6 87.3,-33 27.2,-17.3 52.8,-40.9 78.6,-72 l 404,-486.8 -363.7,-1715.3 c -145.6,140.9 -541.5,518.7 -648.2,562.9 -75,30.9 -305.9,-110.3 -327,-219.5 74.5,54.2 143.6,97.5 201.2,122.8 43.6,19.2 76.6,27.2 94.4,20 116.2,-48 673.7,-596.2 675.4,-597.9 l 53.9,-53 15.9,73.9 383.6,1808.6 4.2,19.5 -13.1,15.6 -417,502.3 c -31.4,37.8 -63.3,66.9 -98,88.9 -35.6,22.8 -73.7,37.2 -117,44.7 l -14.5,-81.7" /><path
         id="path46"
         style="fill:#ffebd9;fill-opacity:1;fill-rule:evenodd;stroke:none"
         d="m 9613.73,11372.9 c 0,0 -1.12,-306.7 -61.96,-666.5 182.25,-471.4 643.13,-1183.8 948.23,-1522.2 305.1,338.4 766,1050.8 948.5,1522.2 -60.8,359.8 -61.9,666.5 -61.9,666.5 H 9613.73" /><path
         id="path48"
         style="fill:#fdc4ae;fill-opacity:1;fill-rule:evenodd;stroke:none"
         d="m 9613.73,11372.9 c 0,0 -1.12,-306.7 -61.96,-666.5 53.06,-137.2 129.74,-294.7 219.21,-457.6 794.32,244 1363.82,674.3 1625.32,900.8 -9.5,136.1 -9.7,223.3 -9.7,223.3 H 9613.73" /><path
         id="path50"
         style="fill:#000000;fill-opacity:1;fill-rule:nonzero;stroke:none"
         d="m 11345.7,11331.3 82.2,83.3 v -41.7 c 0,-0.8 1.2,-303.6 61.4,-659.8 l 2,-11.1 -4.2,-10.6 c -88.6,-228.9 -241.1,-512.6 -409.8,-783.2 -183.3,-294.2 -386.2,-574 -546.5,-751.8 l -30.8,-34.2 -30.8,34.2 c -160.3,177.8 -363.2,457.6 -546.25,751.8 -168.64,270.6 -321.45,554.3 -409.8,783.2 l -4.17,10.6 1.67,11.1 c 60.29,356.2 61.4,659 61.4,659.8 v 41.7 l 82.52,-83.3 c -2.5,-94.8 -13.62,-340.7 -60.01,-620.7 86.95,-221.4 235.04,-495.6 398.96,-758.5 C 10162.4,9680.4 10348,9422 10500,9247 c 152,175 337.6,433.4 506.8,705.1 163.6,262.9 311.7,537.1 398.9,758.5 -46.6,280 -57.5,525.9 -60,620.7" /><g
         transform="scale(1.00656)"
         id="g52"><path
           id="path54"
           style="fill:#ffebd9;fill-opacity:1;fill-rule:evenodd;stroke:none"
           d="m 10431.6,16300 c -1838.31,0 -2910.92,-856.5 -2456.88,-2626.6 142.43,-555.9 393.33,-1425.9 681.77,-1756.6 381.46,-436.9 1434.71,-909.7 1775.11,-937.6 340.3,27.9 1393.8,500.7 1775,937.6 288.5,330.7 539.4,1200.7 682,1756.6 453.9,1770.1 -618.5,2626.6 -2457,2626.6" /></g><g
         transform="scale(1.00656)"
         id="g56"><path
           id="path58"
           style="fill:#fdc4ae;fill-opacity:1;fill-rule:evenodd;stroke:none"
           d="m 10431.6,16300 c -1831.14,0 -2902.09,-849.9 -2462.12,-2605.9 78.66,-136.1 126.7,-223 123.1,-226 0,0 1676.54,957.5 4745.92,33.6 l 4.9,-1.4 c 16,60.2 31.2,118.2 45.2,173.1 453.9,1770.1 -618.5,2626.6 -2457,2626.6" /></g><path
         id="path60"
         style="fill:#383844;fill-opacity:1;fill-rule:evenodd;stroke:none"
         d="m 9754.58,15822.7 c 0,0 139.75,128.9 532.02,9.7 0,0 336.5,201.4 628.8,71.4 0,0 -67.3,378.9 -226.2,360 -158.9,-18.9 -400.6,-395.9 -400.6,-395.9 0,0 -305.08,333.7 -394.55,284.5 -89.18,-48.9 -139.47,-329.7 -139.47,-329.7" /><path
         id="path62"
         style="fill:#fdc4ae;fill-opacity:1;fill-rule:evenodd;stroke:none"
         d="m 10728.7,14183.5 79.1,-100.1 c 119.2,-150.8 312,-267.5 491.2,-235.3 89.5,15.9 179.8,42.3 266.2,67 112.5,31.7 224.5,64.7 337.6,95.6 l -1174.1,172.8" /><path
         id="path64"
         style="fill:#000000;fill-opacity:1;fill-rule:evenodd;stroke:none"
         d="m 10854.5,14075.7 c 100.9,-113.7 268.9,-198.7 425.6,-148.9 245.9,78.3 833.5,377.8 1153.3,425.6 -559.8,158.3 -1095.7,-218.4 -1578.9,-276.7" /><path
         id="path66"
         style="fill:#ffffff;fill-opacity:1;fill-rule:evenodd;stroke:none"
         d="m 7997.87,13885.4 c 8.89,-40.3 18.34,-80.9 29.17,-122.3 143.36,-559.5 395.91,-1435.3 686.24,-1768.1 383.96,-439.8 1444.12,-915.7 1786.72,-943.8 342.6,28.1 1403,504 1786.7,943.8 290.4,332.8 542.9,1208.6 686.5,1768.1 6.7,26.7 13.1,53.1 19.5,79.2 -54.8,0.3 -89.8,-17.8 -100,-58.4 -65.6,-255.3 -136.2,-509.8 -217.6,-760.4 -62.5,-192.2 -131.7,-385.6 -214.5,-570.1 -60.2,-134.2 -139.4,-292.3 -236.7,-403.7 -178.1,-204.4 -478.1,-389.8 -715.1,-518.9 -190.6,-104 -390.9,-198.4 -593.4,-276.5 -117.3,-45 -288.4,-107.5 -415.4,-119.7 -127,12.2 -298.1,74.7 -415.4,119.7 -202.49,78.1 -402.81,172.5 -593.4,276.5 -236.99,129.1 -536.77,314.5 -715.13,518.9 -97.24,111.4 -176.42,269.5 -236.71,403.7 -82.79,184.5 -151.97,377.9 -214.21,570.1 -81.4,250.6 -152.25,505.1 -217.82,760.4 -11.11,43.4 -49.17,76.5 -109.46,101.5" /><path
         id="path68"
         style="fill:#000000;fill-opacity:1;fill-rule:nonzero;stroke:none"
         d="m 12962.7,15557.9 c 102.5,-305.9 156.7,-635.7 156.7,-976.3 0,-270.9 -34.5,-549.3 -106.2,-828.5 -71.9,-281.4 -171.4,-641.8 -288.9,-972.7 -118.9,-334.8 -257.3,-641.5 -406.5,-812.6 -175.6,-201.2 -487.3,-408.7 -809.3,-578.7 -396.4,-209.5 -811.2,-363.4 -1005.2,-379.3 l -3.3,-0.3 -3.3,0.3 c -194,15.9 -608.48,169.8 -1005.22,379.3 -321.72,170 -633.73,377.5 -809.32,578.7 -149.19,171.1 -287.27,477.8 -406.18,812.6 -117.52,330.9 -216.99,691.3 -289.22,972.7 -71.68,279.2 -105.86,557.6 -105.86,828.5 0,339.2 53.63,667.9 155.31,972.7 l 135.58,128.6 c -135.58,-338.7 -207.82,-712.6 -207.82,-1101.3 0,-265.1 33.34,-536.5 103.08,-808.2 71.4,-278.1 170.03,-635.4 287.28,-965.5 115.85,-326.1 249.21,-623.7 390.34,-785.4 168.09,-192.8 471.48,-394 785.43,-559.8 385.34,-203.7 784.3,-353.4 969.9,-369.8 185.9,16.4 584.6,166.1 969.9,369.8 314.2,165.8 617.3,367 785.7,559.8 141.1,161.7 274.5,459.3 390.4,785.4 117.2,330.1 215.8,687.4 286.9,965.5 69.8,271.7 103.1,543.1 103.1,808.2 0,379.8 -68.9,745.7 -198.6,1078.2 l 125.3,-101.9" /><path
         id="path70"
         style="fill:#adb1bc;fill-opacity:1;fill-rule:evenodd;stroke:none"
         d="m 7724.49,12976.3 c -41.12,131.4 -77.8,265 -107.8,399.5 -24.18,107.8 -46.12,223.4 -52.51,334 -2.5,43.9 0.28,88.6 10,131.6 9.17,39 24.17,76.5 45.84,110.4 35.84,55.2 88.91,98 152.25,117.8 30.84,9.4 63.62,13.3 95.58,9.7 30.84,-3.4 60.56,-13.1 86.4,-30 38.89,-25 65.01,-62.5 78.63,-106.4 78.9,-255.1 148.91,-517.1 219.48,-774.9 43.06,-157.8 85.57,-315.6 127.52,-473.7 23.9,-90.9 50.57,-185.3 70.02,-277.3 13.05,-61.4 4.17,-124.4 -32.79,-176.1 -15.55,-22 -35.56,-40.9 -58.34,-55.3 -23.06,-14.7 -48.62,-25.3 -75.29,-30.8 -67.51,-14.2 -136.97,2.5 -192.54,41.9 -16.39,12 -31.67,25.6 -45.28,40.3 -14.73,15.8 -27.51,33.1 -39.18,51.4 -56.4,89.7 -102.79,196.1 -142.52,294.2 -52.24,128.9 -98.35,260.9 -139.47,393.7" /><path
         id="path72"
         style="fill:#7e828d;fill-opacity:1;fill-rule:evenodd;stroke:none"
         d="m 7812.84,14078.4 c 18.05,2.5 36.67,2.8 55.01,0.9 30.84,-3.4 60.56,-13.1 86.4,-30 38.89,-25 65.01,-62.5 78.63,-106.4 78.9,-255.1 148.91,-517.1 219.48,-774.9 43.06,-157.8 85.57,-315.6 127.52,-473.7 23.9,-90.9 50.57,-185.3 70.02,-277.3 7.5,-36.1 7.78,-72.5 -0.84,-106.9 l -3.05,-2 c -22.78,-15.5 -48.34,-26.4 -75.01,-32.2 -66.96,-14.7 -136.7,2.5 -192.82,43.9 -16.67,12.2 -32.23,26.4 -46.12,41.9 -14.72,16.7 -27.78,34.5 -39.45,53.7 -194.76,316.7 -379.79,975.4 -403.68,1330.2 -3.06,46.1 -0.84,92.5 8.61,137.3 8.33,40.8 23.06,80 44.17,115.3 19.17,31.1 43.07,58.6 71.13,80.2" /><path
         id="path74"
         style="fill:#f25960;fill-opacity:1;fill-rule:evenodd;stroke:none"
         d="m 7872.29,12563.2 c 37.79,-92 81.68,-190.6 134.47,-274.8 7.22,-11.7 15,-22.8 23.62,-33.3 l 52.78,-66.4 -85.01,-1.2 c -164.48,-1.6 -312.28,64.2 -412.02,197.6 -92.52,124.2 -171.98,347.3 -218.93,495.1 -47.51,149.7 -108.91,371.4 -105.3,528.4 l 187.53,407.6 -101.68,641.5 226.99,439.2 112.24,-841.8 -115.86,-229.8 c -7.22,-37.7 -8.89,-76.9 -6.66,-115.3 5.83,-103.6 25.83,-211.7 47.78,-312.8 58.35,-269.8 154.75,-579.3 260.05,-834" /><path
         id="path76"
         style="fill:#ffffff;fill-opacity:1;fill-rule:evenodd;stroke:none"
         d="m 8023.98,12263.1 c 2.23,-2.8 4.17,-5.3 6.4,-8 l 52.78,-66.4 -85.01,-1.2 c -164.48,-1.6 -312.28,64.2 -412.02,197.6 -92.52,124.2 -171.98,347.3 -218.93,495.1 -47.51,149.7 -108.91,371.4 -105.3,528.4 l 101.13,219.8 101.41,-758.8 c 0,0 185.87,-609.8 507.31,-603.4 18.06,0.2 35.56,-0.6 52.23,-3.1" /><path
         id="path78"
         style="fill:#000000;fill-opacity:1;fill-rule:nonzero;stroke:none"
         d="m 7605.58,13712.3 c 10.27,-177.3 74.73,-454.6 158.63,-723.8 85.58,-274.7 190.59,-539.5 277.56,-678.2 10.55,-16.6 22.22,-31.9 34.45,-45 12.5,-13.6 25.56,-25 38.89,-34.7 51.13,-36.4 108.64,-46.1 159.76,-35.3 22.22,4.7 43.06,13.4 61.67,25.3 18.06,11.7 34.18,26.7 46.96,44.5 26.11,36.6 37.78,85.8 25.84,143 v 0.3 c -16.4,76.7 -103.92,407.6 -197.26,748.5 -84.74,310.3 -174.48,629.8 -218.94,773.7 -11.94,38.1 -33.89,66.2 -61.39,83.9 -20.01,13.1 -43.62,20.9 -68.35,23.4 -25.56,2.8 -52.51,0 -78.9,-8.1 -48.9,-15.3 -95.85,-48.9 -129.47,-100.8 -17.51,-27.3 -31.68,-59.8 -40.29,-97 -8.06,-35.6 -11.66,-75.3 -9.16,-119.7 z m 154.47,396.7 c 37.23,11.7 75.57,15.3 112.24,11.4 37.51,-3.9 73.07,-15.8 104.46,-36.1 43.35,-28.1 77.52,-71.1 95.58,-129.2 44.17,-142.5 134.19,-463.4 219.76,-776.5 93.63,-342.9 181.98,-675.7 198.37,-753.2 v 0 c 17.23,-82 -0.55,-153.7 -39.45,-208.4 -18.89,-26.4 -42.79,-48.9 -70.01,-66.4 -27.23,-17.2 -57.51,-29.7 -89.47,-36.4 -67.23,-14.2 -141.96,-3.6 -209.48,38.9 -71.96,-11.4 -347.28,-36.1 -528.98,207.3 -74.18,98.9 -159.75,300.3 -225.6,507.3 -64.18,202.8 -109.75,413.1 -106.97,541.5 3.06,136.6 95.58,342.5 186.71,447 l -14.17,-177.6 c -54.46,-82.5 -87.52,-174.2 -89.74,-271.1 -2.5,-118.4 41.67,-319.2 103.63,-514.6 63.07,-199.4 144.19,-391.1 212.54,-482.8 117.24,-156.7 280.32,-182 378.4,-180.9 -9.17,11.4 -17.78,23.6 -26.12,37 -91.12,145 -199.48,417 -286.99,697.6 -85.3,274.8 -151.42,559.5 -161.98,743.7 -9.17,162.3 58.07,344.6 237.27,401.5" /><path
         id="path80"
         style="fill:#000000;fill-opacity:1;fill-rule:nonzero;stroke:none"
         d="m 7383.31,14506 c 29.45,-252.8 88.91,-545.9 103.91,-625.9 4.17,-22.8 4.17,-32.5 2.22,-41.7 -3.05,-14.7 -12.22,-24.7 -26.67,-55 -53.06,-113.1 -61.4,-248.7 -44.73,-391.7 17.5,-153.1 63.63,-314.3 115.02,-466.3 l 173.09,69.8 30.84,-77 -170.31,-68.6 c -48.07,-19.4 -85.01,-29.2 -102.24,20 -58.35,168.9 -108.91,339 -128.92,512.6 -20,172.8 -5.83,337.6 71.69,474 -11.39,60.3 -64.18,314.8 -95.3,552.9 l 71.4,96.9" /><path
         id="path82"
         style="fill:#fdc4ae;fill-opacity:1;fill-rule:evenodd;stroke:none"
         d="m 12304.2,13240.2 c 0,0 -143.9,-379.5 -735.1,-361.4 l 735.1,361.4" /><path
         id="path84"
         style="fill:#fdc4ae;fill-opacity:1;fill-rule:evenodd;stroke:none"
         d="m 8695.78,13240.2 c 0,0 144.19,-379.5 735.13,-361.4 l -735.13,361.4" /><path
         id="path86"
         style="fill:#ffffff;fill-opacity:1;fill-rule:evenodd;stroke:none"
         d="m 10416.1,12969.1 c -14.2,-120.9 -76.7,-283.1 -65.3,-399.8 5,-49.8 87.5,-147.6 125,-278.4 -86.9,72.5 -287,174.2 -290.9,252 -5,90 168.1,331.2 231.2,426.2" /><path
         id="path88"
         style="fill:#fdc4ae;fill-opacity:1;fill-rule:evenodd;stroke:none"
         d="m 10271.3,14189.9 -79.1,-100.1 c -119.2,-150.8 -312.04,-267.5 -490.96,-235.3 -89.46,15.9 -179.76,42.2 -266.44,67 -112.52,31.6 -224.48,64.7 -337.28,95.5 l 1173.78,172.9" /><path
         id="path90"
         style="fill:#000000;fill-opacity:1;fill-rule:evenodd;stroke:none"
         d="m 10145.8,14075.7 c -101.2,-113.7 -269.25,-198.7 -425.67,-148.9 -245.88,78.3 -833.76,377.8 -1153.26,425.6 559.54,158.3 1095.47,-218.4 1578.93,-276.7" /><path
         id="path92"
         style="fill:#000000;fill-opacity:1;fill-rule:evenodd;stroke:none"
         d="m 9045.01,12984.9 -80.57,-65 11.95,83.6 -94.74,-27.2 29.17,82.8 c 39.73,-25.8 85.01,-50.9 134.19,-74.2" /><path
         id="path94"
         style="fill:#ffffff;fill-opacity:1;fill-rule:evenodd;stroke:none"
         d="m 9903.78,13459.7 c -192.81,334.8 -1020.75,488.7 -1348.86,89.2 84.18,-226.4 199.2,-383.4 339.23,-488.4 157.8,-118.4 459.25,-216.7 675.4,-170.3 237.82,51.1 361.18,308.1 334.23,569.5" /><path
         id="path96"
         style="fill:#dfe7ff;fill-opacity:1;fill-rule:evenodd;stroke:none"
         d="m 9903.78,13459.7 c -192.81,334.8 -1020.75,488.7 -1348.86,89.2 21.95,-59.2 45.84,-113.4 71.96,-163.4 36.95,27 61.4,45.3 61.4,45.3 0,0 340.61,291.7 1219.11,-52.8 0.55,27 -0.55,54.2 -3.61,81.7" /><path
         id="path98"
         style="fill:#000000;fill-opacity:1;fill-rule:evenodd;stroke:none"
         d="m 9977.12,13422.2 c -330.33,170 -927.11,490.4 -1309.96,95.9 31.39,-162.3 98.35,-286.2 175.03,-415.4 -167.53,134.7 -299.77,312.6 -413.68,512.9 479.81,517.3 1033.24,256.4 1489.44,-14.2 l 59.17,-179.2" /><path
         id="path100"
         style="fill:#000000;fill-opacity:1;fill-rule:evenodd;stroke:none"
         d="m 8658.83,13804.2 -293.67,-135.6 177.26,-31.9 z" /><path
         id="path102"
         style="fill:#000000;fill-opacity:1;fill-rule:nonzero;stroke:none"
         d="m 8869.98,13890.4 c 151.69,24.4 505.92,85.5 999.62,-171.5 -517.87,192.6 -991.57,120.3 -992.68,120 l -6.94,51.5" /><path
         id="path104"
         style="fill:#545264;fill-opacity:1;fill-rule:evenodd;stroke:none"
         d="m 9491.48,13733.4 c 161.42,0 292.55,-157.3 292.55,-351.2 0,-193.9 -131.13,-350.9 -292.55,-350.9 -161.69,0 -292.83,157 -292.83,350.9 0,193.9 131.14,351.2 292.83,351.2" /><path
         id="path106"
         style="fill:#000000;fill-opacity:1;fill-rule:evenodd;stroke:none"
         d="m 9491.48,13705 c 148.64,0 268.94,-144.4 268.94,-322.8 0,-178.4 -120.3,-322.8 -268.94,-322.8 -148.64,0 -269.22,144.4 -269.22,322.8 0,178.4 120.58,322.8 269.22,322.8 z m 0,-698.7 c 177.81,0 322,168.4 322,375.9 0,207.8 -144.19,375.9 -322,375.9 -178.09,0 -322.28,-168.1 -322.28,-375.9 0,-207.5 144.19,-375.9 322.28,-375.9" /><path
         id="path108"
         style="fill:#000000;fill-opacity:1;fill-rule:evenodd;stroke:none"
         d="m 9784.03,13382.2 c -173.64,116.7 -359.51,162.2 -554.82,156.4 89.18,181.2 224.76,198.4 321.45,180.3 123.91,-23.3 220.87,-196.1 233.37,-336.7" /><path
         id="path110"
         style="fill:#d2deff;fill-opacity:1;fill-rule:evenodd;stroke:none"
         d="m 9729.3,13231.1 c -45.29,-102.3 -134.74,-171.7 -237.82,-171.7 -103.08,0 -192.81,69.4 -237.82,171.7 45.01,102.2 134.74,171.7 237.82,171.7 103.08,0 192.53,-69.5 237.82,-171.7" /><path
         id="path112"
         style="fill:#000000;fill-opacity:1;fill-rule:evenodd;stroke:none"
         d="m 9491.48,13578.1 c 90.02,0 163.09,-87.8 163.09,-195.9 0,-108.1 -73.07,-195.6 -163.09,-195.6 -90.29,0 -163.36,87.5 -163.36,195.6 0,108.1 73.07,195.9 163.36,195.9" /><path
         id="path114"
         style="fill:#ffffff;fill-opacity:1;fill-rule:evenodd;stroke:none"
         d="m 9636.51,13532.5 c 43.9,0 79.74,-45.8 79.74,-102.2 0,-56.7 -35.84,-102.3 -79.74,-102.3 -43.9,0 -79.46,45.6 -79.46,102.3 0,56.4 35.56,102.2 79.46,102.2" /><path
         id="path116"
         style="fill:#ffffff;fill-opacity:1;fill-rule:evenodd;stroke:none"
         d="m 9355.34,13275 c 23.62,0 42.51,-24.5 42.51,-54.8 0,-30.3 -18.89,-54.7 -42.51,-54.7 -23.61,0 -42.5,24.4 -42.5,54.7 0,30.3 18.89,54.8 42.5,54.8" /><path
         id="path118"
         style="fill:#000000;fill-opacity:1;fill-rule:evenodd;stroke:none"
         d="m 11955.3,12984.9 80.5,-65 -12.2,83.6 94.8,-27.2 -28.9,82.8 c -39.8,-25.8 -85.3,-50.9 -134.2,-74.2" /><path
         id="path120"
         style="fill:#ffffff;fill-opacity:1;fill-rule:evenodd;stroke:none"
         d="m 11096.2,13459.7 c 192.8,334.8 1021,488.7 1349.2,89.2 -84.5,-226.4 -199.2,-383.4 -339.6,-488.4 -157.5,-118.4 -458.9,-216.7 -675.4,-170.3 -237.8,51.1 -361.1,308.1 -334.2,569.5" /><path
         id="path122"
         style="fill:#dfe7ff;fill-opacity:1;fill-rule:evenodd;stroke:none"
         d="m 11096.2,13459.7 c 192.8,334.8 1021,488.7 1349.2,89.2 -22,-59.2 -46.2,-113.4 -72.3,-163.4 -36.9,27 -61.4,45.3 -61.4,45.3 0,0 -340.6,291.7 -1219.1,-52.8 -0.3,27 0.8,54.2 3.6,81.7" /><path
         id="path124"
         style="fill:#000000;fill-opacity:1;fill-rule:evenodd;stroke:none"
         d="m 11022.9,13422.2 c 330.6,170 927.4,490.4 1309.9,95.9 -31.4,-162.3 -98.3,-286.2 -175,-415.4 167.8,134.7 299.8,312.6 413.7,512.9 -479.5,517.3 -1033,256.4 -1489.4,-14.2 l -59.2,-179.2" /><path
         id="path126"
         style="fill:#000000;fill-opacity:1;fill-rule:evenodd;stroke:none"
         d="m 12341.5,13804.2 293.6,-135.6 -177.5,-31.9 z" /><path
         id="path128"
         style="fill:#000000;fill-opacity:1;fill-rule:nonzero;stroke:none"
         d="m 12130.3,13890.4 c -151.7,24.4 -506.2,85.5 -999.9,-171.5 517.9,192.6 991.8,120.3 993,120 l 6.9,51.5" /><path
         id="path130"
         style="fill:#545264;fill-opacity:1;fill-rule:evenodd;stroke:none"
         d="m 11508.8,13733.4 c -161.7,0 -292.6,-157.3 -292.6,-351.2 0,-193.9 130.9,-350.9 292.6,-350.9 161.4,0 292.5,157 292.5,350.9 0,193.9 -131.1,351.2 -292.5,351.2" /><path
         id="path132"
         style="fill:#000000;fill-opacity:1;fill-rule:evenodd;stroke:none"
         d="m 11508.8,13705 c -148.6,0 -269.2,-144.4 -269.2,-322.8 0,-178.4 120.6,-322.8 269.2,-322.8 148.6,0 268.9,144.4 268.9,322.8 0,178.4 -120.3,322.8 -268.9,322.8 z m 0,-698.7 c -178.1,0 -322.3,168.4 -322.3,375.9 0,207.8 144.2,375.9 322.3,375.9 177.8,0 322.3,-168.1 322.3,-375.9 0,-207.5 -144.5,-375.9 -322.3,-375.9" /><path
         id="path134"
         style="fill:#000000;fill-opacity:1;fill-rule:evenodd;stroke:none"
         d="m 11216.2,13382.2 c 173.4,116.7 359.3,162.2 554.6,156.4 -88.9,181.2 -224.5,198.4 -321.5,180.3 -123.9,-23.3 -220.5,-196.1 -233.1,-336.7" /><path
         id="path136"
         style="fill:#d2deff;fill-opacity:1;fill-rule:evenodd;stroke:none"
         d="m 11271,13231.1 c 45.3,-102.3 134.7,-171.7 237.8,-171.7 103.1,0 192.5,69.4 237.8,171.7 -45.3,102.2 -134.7,171.7 -237.8,171.7 -103.1,0 -192.5,-69.5 -237.8,-171.7" /><path
         id="path138"
         style="fill:#000000;fill-opacity:1;fill-rule:evenodd;stroke:none"
         d="m 11508.8,13578.1 c -90,0 -163.1,-87.8 -163.1,-195.9 0,-108.1 73.1,-195.6 163.1,-195.6 90,0 163.1,87.5 163.1,195.6 0,108.1 -73.1,195.9 -163.1,195.9" /><path
         id="path140"
         style="fill:#ffffff;fill-opacity:1;fill-rule:evenodd;stroke:none"
         d="m 11635.5,13545.6 c 43.9,0 79.5,-45.9 79.5,-102.3 0,-56.6 -35.6,-102.5 -79.5,-102.5 -43.9,0 -79.7,45.9 -79.7,102.5 0,56.4 35.8,102.3 79.7,102.3" /><path
         id="path142"
         style="fill:#ffffff;fill-opacity:1;fill-rule:evenodd;stroke:none"
         d="m 11354.3,13288 c 23.4,0 42.5,-24.4 42.5,-54.7 0,-30.3 -19.1,-55 -42.5,-55 -23.6,0 -42.8,24.7 -42.8,55 0,30.3 19.2,54.7 42.8,54.7" /><path
         id="path144"
         style="fill:#adb1bc;fill-opacity:1;fill-rule:evenodd;stroke:none"
         d="m 13275.8,12976.3 c 40.8,131.4 77.8,265 107.5,399.5 24.2,107.8 46.4,223.4 52.5,334 2.8,43.9 0,88.6 -10,131.6 -9.1,39 -24.1,76.5 -45.8,110.4 -35.9,55.2 -88.7,98 -152,117.8 -30.8,9.4 -63.6,13.3 -95.8,9.7 -30.6,-3.4 -60.3,-13.1 -86.4,-30 -38.7,-25 -64.8,-62.5 -78.4,-106.4 -79.2,-255.1 -149.2,-517.1 -219.5,-774.9 -43,-157.8 -85.8,-315.6 -127.5,-473.7 -24.2,-90.9 -50.8,-185.3 -70.3,-277.3 -12.8,-61.4 -4.2,-124.4 32.8,-176.1 15.8,-22 35.5,-40.9 58.3,-55.3 23.1,-14.7 48.9,-25.3 75.6,-30.8 67.2,-14.2 136.7,2.5 192.3,41.9 16.6,12 31.6,25.6 45.5,40.3 14.5,15.8 27.5,33.1 38.9,51.4 56.4,89.7 102.8,196.1 142.8,294.2 52.3,128.9 98.1,260.9 139.5,393.7" /><path
         id="path146"
         style="fill:#7e828d;fill-opacity:1;fill-rule:evenodd;stroke:none"
         d="m 13187.4,14078.4 c -18.3,2.5 -36.9,2.8 -55.2,0.9 -30.6,-3.4 -60.3,-13.1 -86.4,-30 -38.7,-25 -64.8,-62.5 -78.4,-106.4 -79.2,-255.1 -149.2,-517.1 -219.5,-774.9 -43,-157.8 -85.8,-315.6 -127.5,-473.7 -24.2,-90.9 -50.8,-185.3 -70.3,-277.3 -7.5,-36.1 -7.5,-72.5 0.8,-106.9 l 3.1,-2 c 22.8,-15.5 48.3,-26.4 75,-32.2 67.2,-14.7 137,2.5 193.1,43.9 16.7,12.2 31.9,26.4 45.8,41.9 14.8,16.7 28.1,34.5 39.8,53.7 194.4,316.7 379.8,975.4 403.4,1330.2 3,46.1 1.1,92.5 -8.4,137.3 -8.6,40.8 -23,80 -44.4,115.3 -18.9,31.1 -43.1,58.6 -70.9,80.2" /><path
         id="path148"
         style="fill:#f25960;fill-opacity:1;fill-rule:evenodd;stroke:none"
         d="m 13127.7,12563.2 c -37.8,-92 -81.7,-190.6 -134.5,-274.8 -7.2,-11.7 -15,-22.8 -23.6,-33.3 l -52.8,-66.4 85.1,-1.2 c 164.4,-1.6 312.2,64.2 412,197.6 92.8,124.2 172.2,347.3 218.9,495.1 47.5,149.7 108.9,371.4 105.6,528.4 l -187.8,407.6 101.9,641.5 -227.2,439.2 -112,-841.8 115.6,-229.8 c 7.2,-37.7 9.1,-76.9 6.9,-115.3 -6.1,-103.6 -26.1,-211.7 -48,-312.8 -58.4,-269.8 -154.5,-579.3 -260.1,-834" /><path
         id="path150"
         style="fill:#ffffff;fill-opacity:1;fill-rule:evenodd;stroke:none"
         d="m 12976,12263.1 c -1.9,-2.8 -4.2,-5.3 -6.4,-8 l -52.8,-66.4 85.1,-1.2 c 164.4,-1.6 312.2,64.2 412,197.6 92.8,124.2 172.2,347.3 218.9,495.1 47.5,149.7 108.9,371.4 105.6,528.4 l -101.4,219.8 -101.4,-758.8 c 0,0 -185.6,-609.8 -507.1,-603.4 -18.3,0.2 -35.8,-0.6 -52.5,-3.1" /><path
         id="path152"
         style="fill:#000000;fill-opacity:1;fill-rule:nonzero;stroke:none"
         d="m 13394.4,13712.3 c -10,-177.3 -74.7,-454.6 -158.3,-723.8 -85.6,-274.7 -190.6,-539.5 -277.9,-678.2 -10.5,-16.6 -21.9,-31.9 -34.1,-45 -12.5,-13.6 -25.6,-25 -38.9,-34.7 -51.2,-36.4 -108.9,-46.1 -159.8,-35.3 -22.2,4.7 -43,13.4 -61.7,25.3 -18.3,11.7 -34.1,26.7 -46.9,44.5 -26.1,36.6 -38.1,85.8 -25.9,143 v 0.3 c 16.2,76.7 104,407.6 197,748.5 84.8,310.3 174.5,629.8 219.2,773.7 11.7,38.1 33.7,66.2 61.2,83.9 20.2,13.1 43.6,20.9 68.3,23.4 25.6,2.8 52.5,0 78.9,-8.1 48.9,-15.3 95.9,-48.9 129.5,-100.8 17.8,-27.3 31.6,-59.8 40.3,-97 8.3,-35.6 11.6,-75.3 9.1,-119.7 z M 13240,14109 c -37.3,11.7 -75.6,15.3 -112.3,11.4 -37.2,-3.9 -73.1,-15.8 -104.2,-36.1 -43.3,-28.1 -77.8,-71.1 -95.8,-129.2 -44.2,-142.5 -134.2,-463.4 -219.8,-776.5 -93.6,-342.9 -182,-675.7 -198.1,-753.2 h -0.3 c -17.2,-82 0.6,-153.7 39.8,-208.4 18.6,-26.4 42.5,-48.9 70,-66.4 26.9,-17.2 57.2,-29.7 89.2,-36.4 67.2,-14.2 142.2,-3.6 209.7,38.9 72,-11.4 347,-36.1 529,207.3 73.9,98.9 159.8,300.3 225.3,507.3 64.2,202.8 110,413.1 107,541.5 -2.8,136.6 -95.6,342.5 -186.7,447 l 14.4,-177.6 c 54.5,-82.5 87.3,-174.2 89.5,-271.1 2.8,-118.4 -41.4,-319.2 -103.4,-514.6 -63.3,-199.4 -144.4,-391.1 -212.8,-482.8 -117.2,-156.7 -280.3,-182 -378.1,-180.9 8.9,11.4 17.8,23.6 26.1,37 90.9,145 199.5,417 286.7,697.6 85.6,274.8 151.5,559.5 162,743.7 9.2,162.3 -58,344.6 -237.2,401.5" /><path
         id="path154"
         style="fill:#000000;fill-opacity:1;fill-rule:nonzero;stroke:none"
         d="m 13616.7,14506 c -29.5,-252.8 -88.9,-545.9 -103.9,-625.9 -4.2,-22.8 -4.2,-32.5 -2.2,-41.7 3.3,-14.7 12.5,-24.7 26.6,-55 53.1,-113.1 61.4,-248.7 45,-391.7 -17.7,-153.1 -63.9,-314.3 -115.3,-466.3 l -172.8,69.8 -30.8,-77 170,-68.6 c 48.1,-19.4 85.3,-29.2 102.3,20 58.6,168.9 108.9,339 129.2,512.6 20,172.8 5.8,337.6 -72,474 11.4,60.3 64.5,314.8 95.3,552.9 l -71.4,96.9" /><g
         transform="scale(1.06746)"
         id="g156"><path
           id="path158"
           style="fill:#5e5e68;fill-opacity:1;fill-rule:evenodd;stroke:none"
           d="m 12073,12739.5 -49.2,-596.8 c 0,0 328.7,498.9 438.2,946.3 109.6,447.4 171.3,768.4 171.3,768.4 0,0 -640,1152.2 -1504.4,1636 -864.4,483.9 -1767.98,633 -2045.17,806.6 0,0 106.71,-253.2 237.37,-420.1 0,0 -751.68,-225.1 -1466.9,-949.4 -411.74,-417 -664.73,-791.8 -795.13,-1016.9 51.27,-415.9 202.24,-1246.5 577.55,-1723.8 l -33.58,538.5 c 0,0 199.37,566.1 433.87,910.2 19.79,-151.2 39.57,-302.5 59.34,-453.7 0,0 333.16,1062.4 607.22,1464 31.49,-319 160.85,-572.8 375.05,-770.1 -7.81,565.3 -20.3,721.7 194.94,1264.7 142.91,-68.5 263.1,-185.1 375.79,-317.8 99.96,207.1 226.71,346.9 383.45,412.2 273.5,-251.9 320.4,-940.1 292.7,-1433.8 222.6,236.3 347.3,578.6 383.2,928.4 456.2,-333.2 1198.8,-1515.3 1364.4,-1992.9" /></g><g
         transform="scale(1.06746)"
         id="g160"><path
           id="path162"
           style="fill:#383844;fill-opacity:1;fill-rule:evenodd;stroke:none"
           d="m 7059.07,13913.6 c 7.03,-56.8 15.88,-121.6 27.07,-191.8 v -0.3 c 509.35,653 1249.57,1119.2 2099.09,1277.1 53.61,183 148.09,178.1 271.98,39.6 127.03,-204 220.15,-262.9 338.38,19.3 198.03,299.5 302.71,173.8 391.91,-21.6 976.8,-108.1 1851.6,-614.8 2410.4,-1351.6 23.2,109.5 35.4,173.1 35.4,173.1 0,0 -640,1152.2 -1504.4,1636 -864.4,483.9 -1767.98,633 -2045.17,806.6 0,0 106.71,-253.2 237.37,-420.1 0,0 -751.68,-225.1 -1466.9,-949.4 -411.74,-417 -664.73,-791.8 -795.13,-1016.9" /></g><g
         transform="scale(1.0039)"
         id="g164"><path
           id="path166"
           style="fill:#383844;fill-opacity:1;fill-rule:evenodd;stroke:none"
           d="m 11285.3,16300 c 61.1,-381.4 -77.5,-1082.9 -259.6,-1509.4 206.2,275.4 329.1,595.8 348.4,972.2 12.5,243 23.5,349 -88.8,537.2" /></g><g
         transform="scale(1.00748)"
         id="g168"><path
           id="path170"
           style="fill:#383844;fill-opacity:1;fill-rule:evenodd;stroke:none"
           d="m 9415.21,16300 c 0,0 -173.45,-888.5 164.92,-1498.8 0,0 -379.19,319.1 -330.93,1041 13.24,197.8 73.91,309.4 166.01,457.8" /></g><g
         transform="scale(1.00068)"
         id="g172"><path
           id="path174"
           style="fill:#5e5e68;fill-opacity:1;fill-rule:evenodd;stroke:none"
           d="m 8701.81,14434.5 c 0,0 332.05,1325.5 540.29,1865.5 l 30.82,-377.6 20.82,-180.5 -591.93,-1307.4" /></g><path
         id="path176"
         style="fill:#383844;fill-opacity:1;fill-rule:evenodd;stroke:none"
         d="m 8225.41,14436.3 -96.68,-672.1 48.62,-14.7 c 24.73,62.5 56.12,139.5 92.51,222.8 l -44.45,464" /><g
         transform="scale(1.06209)"
         id="g178"><path
           id="path180"
           style="fill:#5e5e68;fill-opacity:1;fill-rule:evenodd;stroke:none"
           d="m 9197.92,16300 c 0,0 541.26,-452 1036.68,-672.3 0,0 -335.92,-5.5 -576.3,95.8 -240.37,101.5 -430.03,413.5 -460.38,576.5" /></g><path
         id="path182"
         style="fill:#000000;fill-opacity:1;fill-rule:nonzero;stroke:none"
         d="m 11715.5,15501.2 c 242.5,-260.9 517.9,-591.5 737.6,-936 202.6,-318.1 373.4,-655.4 469.6,-974.9 l -68.1,-20 c -188.1,625.7 -739.3,1400.5 -1199.9,1879 -76.4,79.1 -155.9,156.1 -234,233.6 l 20.3,87 c 92.5,-88.7 187.3,-174.8 274.5,-268.7" /><path
         id="path184"
         style="fill:#000000;fill-opacity:1;fill-rule:nonzero;stroke:none"
         d="m 12924.6,13703.1 c 1.7,-190.6 -7.8,-381.5 -28,-574.8 107.5,178.1 202.8,394.5 283.3,621.2 128.4,361.2 219.3,747.6 264.5,1049.1 l 82.3,-12.5 c -45.9,-305.4 -138.1,-697.7 -268.4,-1064.1 -106.1,-298.4 -237.8,-580.4 -390.4,-786 l -96.1,-129.5 21.7,159.8 c 33.9,249.5 50.5,493.4 48.3,736.2 -1.9,243.1 -22.5,486 -62.5,733.8 123.9,-170 144.2,-587.6 145.3,-733.2" /><path
         id="path186"
         style="fill:#000000;fill-opacity:1;fill-rule:nonzero;stroke:none"
         d="m 9286.44,15565.9 c -108.91,-192.8 -210.87,-409.5 -301.17,-624.5 -128.35,-306.7 -232.54,-609.6 -298.11,-834.9 l -46.39,-158.9 -34.18,162 c -19.17,91.1 -33.34,177.5 -42.78,258.1 -3.61,29.7 -6.39,58.6 -8.61,86.9 -75.02,-140.6 -144.76,-275.6 -206.15,-404.2 -79.47,-167 -143.64,-320.9 -183.65,-457.9 l -79.46,23.1 c 41.68,142.8 107.24,300.9 188.09,470.6 80.02,168.1 176.15,349.5 278.94,539.8 l 76.41,142 1.39,-161.1 c 0.55,-69.5 5.55,-146.2 15.55,-229.5 3.34,-27.5 6.95,-55.6 11.39,-84.2 64.74,201.7 150.59,440.1 250.88,679.9 115.02,274.2 243.66,543.1 391.46,779.5 l -13.61,-186.7" /><path
         id="path188"
         style="fill:#000000;fill-opacity:1;fill-rule:nonzero;stroke:none"
         d="m 8225.41,14436.3 c -40,-247.8 -60.57,-490.7 -62.51,-733.8 -2.22,-242.8 14.45,-486.7 48.35,-736.2 l 21.11,-155.9 -95.3,125.3 c -156.14,205.3 -300.61,523.5 -409.24,876.6 -107.8,350.9 -180.87,737.3 -194.48,1083 l 82.79,3.3 c 13.34,-338.4 85.02,-717.4 190.87,-1061.9 83.35,-270.9 187.54,-519.5 301.17,-709.5 -20.28,193.6 -29.73,384.7 -28.06,575.9 1.11,145.6 24.72,597.1 145.3,733.2" /><g
         transform="scale(1.10695)"
         id="g190"><path
           id="path192"
           style="fill:#032e48;fill-opacity:1;fill-rule:evenodd;stroke:none"
           d="m 6445.31,8455.91 c 39.15,39.93 90.86,91.6 124.49,124.49 l -11.05,9.84 c 81.07,71.55 162.9,141.84 244.21,210.31 l 0.25,0.27 c 83.58,70.56 166.41,139.58 247.72,207.06 68.77,57.18 137.79,114.46 206.31,172.18 -62.24,147.34 -141.3,294.87 -216.59,435.97 -102.16,190.98 -207.82,380.22 -312.99,569.47 -131.51,236.7 -264.28,473.9 -389.53,714 -48.69,93.4 -96.62,187.8 -140.3,283.7 -27.35,60.2 -59.48,132.5 -74.04,197 -38.15,166.6 -17.32,397.3 2.77,566 32.12,269 86.33,539.6 146.82,803.6 42.92,187.2 90.61,373.5 141.31,558.7 56.72,206.3 117.46,411.9 182.97,615.7 l -7.03,-20.9 -37.65,98.9 c -100.89,264.3 -186.99,533.1 -256.51,807.2 -87.84,347.6 -148.33,700.5 -183.97,1057.2 l -4.27,41.6 41.91,-0.2 c 270.07,-2.8 540.13,-10.8 809.19,-33.2 269.8,-22.3 536.35,-59.7 801.4,-116.7 244.45,176.7 521.54,310.5 809.17,400.8 295.16,92.9 606.1,141.1 915.59,141.1 309.68,0 620.41,-48.2 915.61,-141.1 287.6,-90.3 564.7,-224.1 809.4,-400.8 264.8,57 531.4,94.4 801.4,116.7 269.1,22.4 539.1,30.4 809,33.2 l 41.9,0.2 -4.3,-41.6 c -35.6,-356.7 -96.2,-709.6 -184,-1057.2 -69.3,-274.1 -155.6,-542.9 -256.3,-807.2 l -37.8,-99.1 -6.5,19.8 c 65.2,-203.5 125.9,-408.3 182.4,-614.4 50.9,-185.2 98.4,-371.5 141.3,-558.7 60.5,-264 115,-534.6 147.1,-803.6 20.1,-168.7 40.7,-399.4 2.7,-566 -14.8,-64.5 -46.9,-136.8 -74.2,-197 -43.5,-95.9 -91.6,-190.3 -140.3,-283.7 -125.3,-240.1 -258,-477.3 -389.6,-714 -105.1,-189.25 -210.5,-378.49 -312.7,-569.47 -75.5,-141.1 -154.4,-288.63 -216.6,-435.97 68.3,-57.72 137.3,-115 206,-172.18 81.4,-67.48 164.2,-136.5 247.8,-207.06 l 0.2,-0.27 c 81.4,-68.47 163.1,-138.76 244.3,-210.31 l -10.9,-9.84 c 162.5,-159.63 397.1,-401.83 666.2,-714.3 510.9,-593.8 990.9,-1397.72 878.9,-1930.8 -94.1,-446.99 -594.4,-478.61 -594.4,-478.61 -760.2,-2.98 -1919.2,516.55 -1919.2,516.55 -108.7,305.17 -126.5,1886.62 -126.5,1886.62 v 0 c -252.3,-115.99 -517.3,-208.59 -792.6,-275.08 l -8.6,66.22 -28.8,225.39 c -21.6,169.48 -44.2,339.85 -60.8,510.05 -29.5,301.64 -36.8,630.92 66.3,920.64 99.7,279.77 285.7,481.32 525.6,657.55 163.6,120.47 330.3,237.47 496.7,354.17 258.3,181.4 516.5,362.6 764.7,557.4 95.9,75.3 190,156.1 267.9,250.2 79.3,95.9 138.7,203.1 163.6,326.1 54.2,269.8 -30.1,638 -107.2,897.7 -21.8,73.1 -45.2,145.6 -70.3,217.4 -63.7,183.7 -137.6,364.9 -218.9,541.6 -66.2,143.6 -138.7,288.2 -220.6,423.4 -142.2,236.2 -319.7,463.6 -504,668.2 -224.8,249.7 -477.3,482.6 -751.8,676.9 -314.8,222.6 -634.8,350.3 -1000.27,462.8 -176.16,54.2 -353.85,103.6 -529.29,160.4 -190.25,61.5 -376.01,131.2 -556.71,217.6 60.48,-129.3 130.51,-262.6 220.36,-374 l 34.88,-43.2 -52.95,-16.3 c -286.62,-87.6 -556.18,-234.9 -800.14,-407.3 -274.58,-194.3 -527.07,-427.2 -751.7,-676.9 -184.48,-204.6 -361.67,-432 -504.23,-668.2 -81.82,-135.2 -154.36,-279.8 -220.38,-423.4 -81.56,-176.7 -155.11,-357.9 -219.1,-541.6 -24.84,-71.8 -48.44,-144.3 -70.02,-217.4 -77.06,-259.7 -161.39,-627.9 -107.18,-897.7 24.6,-123 84.08,-230.2 163.39,-326.1 77.8,-94.1 171.92,-174.9 267.8,-250.2 248.23,-194.8 506.74,-376 765.01,-557.4 166.41,-116.7 332.81,-233.7 496.7,-354.17 239.69,-176.23 425.67,-377.78 525.56,-657.55 103.16,-289.72 95.88,-619 66.26,-920.64 -16.81,-170.2 -39.41,-340.57 -60.99,-510.05 L 8465.74,7651 8457.46,7584.78 7538.35,5973.24 6445.31,8455.91" /></g><path
         id="path194"
         style="fill:#0b172a;fill-opacity:1;fill-rule:evenodd;stroke:none"
         d="m 13839.8,8106.2 -556.8,182.3 341.2,321.7 c 0,0 -454.8,-145.6 -675.7,-386.2 l 891.3,-117.8" /><g
         transform="scale(1.05146)"
         id="g196"><path
           id="path198"
           style="fill:#065674;fill-opacity:1;fill-rule:evenodd;stroke:none"
           d="m 9388.98,16215.2 c 14.54,-20.9 29.87,-41 45.72,-60.8 l 36.73,-45.4 -55.75,-17.2 c -301.75,-92.2 -585.54,-247.3 -842.38,-428.9 -289.07,-204.5 -554.88,-449.7 -791.37,-712.6 -194.22,-215.3 -380.76,-454.7 -530.85,-703.4 -86.14,-142.4 -162.5,-294.6 -232,-445.7 -82.17,-178.1 -156.69,-360.5 -221.95,-545.4 l -39.38,7.1 c 347.73,1283.9 1411.8,2609.8 2631.23,2952.3 z m 3786.22,-2959.4 c -65,184.9 -139.8,367.3 -221.7,545.4 -69.7,151.1 -146.1,303.3 -232.3,445.7 -149.8,248.7 -336.6,488.1 -530.6,703.4 -236.7,262.9 -502.5,508.1 -791.5,712.6 -331.4,234.4 -668.4,368.9 -1053.1,487.3 -161.4,49.7 -323.9,95.4 -485.1,145.8 41.75,2.7 83.5,4 125.25,4 1456.15,0 2824.95,-1547.1 3228.65,-3037.1 l -39.6,-7.1" /></g><g
         transform="scale(1.05776)"
         id="g200"><path
           id="path202"
           style="fill:#cc3750;fill-opacity:1;fill-rule:evenodd;stroke:none"
           d="m 7444.76,15869.5 c 0,0 -101.65,-226.2 -190.43,-447.6 l -253.98,-554.7 c -135.01,287.9 -238.49,665.3 -299.7,998.6 l -16.8,434.2 781.93,-395.8 -21.02,-34.7" /></g><g
         transform="scale(1.06136)"
         id="g204"><path
           id="path206"
           style="fill:#000000;fill-opacity:1;fill-rule:nonzero;stroke:none"
           d="m 6677.95,15812.1 c -28.27,162.3 -51.83,324.6 -72.25,487.9 279.05,-105.5 586.89,-244.8 840.01,-405.2 5.24,-3.4 10.73,-6.8 15.97,-10.2 l -42.15,-68.9 c -262.28,168.9 -592.63,313.1 -719.33,364.1 -12.82,-123.5 -17.01,-230.6 -22.25,-367.7" /></g><g
         transform="scale(1.05776)"
         id="g208"><path
           id="path210"
           style="fill:#cc3750;fill-opacity:1;fill-rule:evenodd;stroke:none"
           d="m 12418.9,15869.5 c 0,0 101.7,-226.2 190.5,-447.6 l 254,-554.7 c 135,287.9 238.5,665.3 299.7,998.6 l 16.5,434.2 -781.6,-395.8 20.9,-34.7" /></g><g
         transform="scale(1.06136)"
         id="g212"><path
           id="path214"
           style="fill:#000000;fill-opacity:1;fill-rule:nonzero;stroke:none"
           d="m 13118.5,15812.1 c 28.2,162.3 51.5,324.6 72.2,487.9 -279.2,-105.5 -586.9,-244.8 -840,-405.2 -5.2,-3.4 -10.8,-6.8 -15.9,-10.2 l 42.1,-68.9 c 262.3,168.9 592.6,313.1 719.3,364.1 12.8,-123.5 16.8,-230.6 22.3,-367.7" /></g><path
         id="path216"
         style="fill:#065674;fill-opacity:1;fill-rule:evenodd;stroke:none"
         d="m 14572.7,7855.3 c 0,0 -835.2,144.5 -1271.4,173.7 l -20.5,170.6 1291.9,-344.3" /><path
         id="path218"
         style="fill:#065674;fill-opacity:1;fill-rule:evenodd;stroke:none"
         d="m 14895,6059.5 c 168.1,39.7 469,159.2 543.1,510.6 124,590.1 -407.3,1480 -972.9,2137.3 -142.5,165.6 -276.5,313.4 -397,441.8 l -57.3,20.6 c 0,0 1459.5,-1652.3 1323.1,-2549.1 -43.4,-284.2 -219,-457.3 -439,-561.2" /><g
         transform="scale(1.07283)"
         id="g220"><path
           id="path222"
           style="fill:#000000;fill-opacity:1;fill-rule:nonzero;stroke:none"
           d="m 10708.6,8649.55 c 15,-153.05 43.8,-378.06 73.3,-609.14 8.1,-62.63 17.6,-141.58 27.5,-223.42 25.3,5.96 50.5,11.93 75.5,18.36 -9.3,77.46 -18.3,153.33 -26.3,214.95 -29.6,229.95 -58.1,453.94 -73.1,606.52 -37.3,379.65 -24.3,679.23 66.4,933.05 89.5,251.95 256.8,460.73 528.5,660.63 168.6,123.8 340.3,244.5 512,364.9 266.5,187 532.7,373.9 790.9,576.4 99.2,78 199.6,164 282.2,263.9 83.9,101.8 149.4,217.6 176.7,353.5 49.9,247.6 -7,593.1 -111.4,945 -139.4,469.5 -363.4,953.3 -529.8,1229.1 -243.5,403.4 -719.5,983.8 -1306.6,1399.2 -720.1,509.1 -1388.28,502.4 -2158.73,870.9 l -97.37,46.6 45.83,-97.6 c 62.93,-136 138.55,-277.9 232.56,-394.2 -294.19,-89.8 -576.47,-241.9 -836.47,-425.7 -587.35,-415.4 -1063.07,-995.8 -1306.75,-1399.2 -166.26,-275.8 -390.53,-759.6 -529.85,-1229.1 -104.37,-351.9 -161.08,-697.4 -111.36,-945 27.45,-135.9 92.72,-251.7 176.88,-353.5 82.61,-99.9 182.83,-185.9 282.28,-263.9 257.92,-202.5 524.41,-389.4 790.88,-576.4 171.44,-120.4 343.4,-241.1 511.73,-364.9 271.65,-199.9 438.94,-408.68 528.81,-660.63 90.37,-253.82 103.32,-553.4 66.3,-933.05 -15.03,-152.58 -43.78,-376.57 -73.3,-606.52 -7.76,-61.62 -17.08,-137.49 -26.41,-214.95 25.12,-6.43 50.5,-12.4 75.62,-18.36 9.83,81.84 19.42,160.79 27.45,223.42 29.52,231.08 58.52,456.09 73.55,609.14 38.32,390.74 24.34,700.77 -70.44,966.23 -95.31,267.24 -271.15,487.62 -555.75,697.12 -170.4,125.1 -341.83,245.5 -513.28,365.7 -265.19,186.4 -530.62,372.6 -787.52,574.1 -95.56,75.1 -192.15,157.7 -270.36,252.2 -76.66,93 -136.22,197.9 -160.82,319.3 -46.88,233.9 8.8,566.7 110.06,908 137.25,463 357.9,939.5 521.82,1210.9 239.55,397 707.5,967.8 1284.74,1375.9 264.15,186.7 550.83,339.3 848.38,425.3 82.38,-85.5 177.36,-150.5 288.74,-178.2 -181.29,115.2 -386.11,448.5 -455.77,570.7 735.22,-317.2 1373.55,-343.6 2044.05,-817.8 577.2,-408.1 1045.2,-978.9 1284.7,-1375.9 163.9,-271.4 384.9,-747.9 522.2,-1210.9 101.2,-341.3 156.8,-674.1 109.8,-908 -24.5,-121.4 -84,-226.3 -160.9,-319.3 -78.2,-94.5 -174.5,-177.1 -270.3,-252.2 -256.9,-201.5 -522.1,-387.7 -787.6,-574.1 -171.4,-120.2 -342.9,-240.6 -513,-365.7 -284.9,-209.5 -460.8,-429.88 -556,-697.12 -107.5,-316.73 -102.6,-636.54 -70.2,-966.23" /></g><path
         id="path224"
         style="fill:#ffffff;fill-opacity:1;fill-rule:evenodd;stroke:none"
         d="m 10940.4,11770 c -13.4,-29.5 -50,-55.9 -71.7,-41.7 -17,11.1 -8.1,43.9 7.5,65.8 44.2,62 84.7,21.7 64.2,-24.1" /><path
         id="path226"
         style="fill:#ffb04a;fill-opacity:1;fill-rule:evenodd;stroke:none"
         d="m 12538.7,7826.4 c 13.1,-327.2 33.1,-680.1 63.4,-930.7 129.2,-1.1 240.6,5.3 240.6,5.3 396.4,71.4 520.3,304.2 520.3,304.2 0,0 -825.4,649.3 -806.8,650.1 2.5,0 -4.1,-10.5 -17.5,-28.9" /><g
         transform="scale(1.10951)"
         id="g228"><path
           id="path230"
           style="fill:#000000;fill-opacity:1;fill-rule:nonzero;stroke:none"
           d="m 6541.14,13858 c -109.68,277.5 -211.35,576.7 -295.48,908.3 -83.64,331 -149.74,694.8 -188.31,1101.8 l -4,41 41.31,-0.2 c 303.74,-2.5 582.45,-11.1 851.63,-33.3 265.43,-22.1 523.11,-57.6 788.29,-114 238.14,169.6 512.08,303.8 804.55,395.7 295.24,92.9 609.5,142.7 924.51,142.7 315.27,0 629.56,-49.8 924.46,-142.7 292.6,-91.9 566.7,-226.1 804.6,-395.7 265.4,56.4 523.1,91.9 788.3,114 269.2,22.2 547.9,30.8 851.6,33.3 l 41.4,0.2 -3.8,-41 c -38.9,-407 -104.7,-770.8 -188.6,-1101.8 -83.9,-331.6 -185.5,-630.8 -295.5,-908.3 l -69.6,27.6 c 109,274.9 209.7,571.2 292.5,898.9 80.1,317.1 144,663.6 182.6,1049.2 -284,-2.7 -547.2,-11.5 -804.3,-32.8 -268,-22.2 -527.6,-58.3 -795.1,-115.9 l -16,-3.3 -13.5,9.8 c -234.5,169 -506.1,303 -796.6,394.4 -288,90.4 -594.67,139.2 -902.46,139.2 -307.8,0 -614.24,-48.8 -902.22,-139.2 -290.72,-91.4 -562.41,-225.4 -796.79,-394.4 l -13.52,-9.8 -16.04,3.3 c -267.18,57.6 -526.85,93.7 -794.79,115.9 -257.16,21.3 -520.59,30.1 -804.55,32.8 38.55,-385.6 102.41,-732.1 182.55,-1049.2 83.13,-327.7 183.8,-624 292.72,-898.9 l -69.86,-27.6" /></g><g
         transform="scale(1.00078)"
         id="g232"><path
           id="path234"
           style="fill:#000000;fill-opacity:1;fill-rule:nonzero;stroke:none"
           d="m 7088.27,9385.56 c 208.76,204.24 429.74,397.79 684.31,609.63 66.91,55.41 132.15,109.91 204.32,170.71 -107.42,245.4 -337.85,659.8 -571.6,1080.2 -309.81,557.4 -624.9,1124.6 -672.37,1332.5 -66.35,291.2 16.11,881.1 165.74,1533 104.37,455 241.79,941.6 383.66,1377.2 48.02,146.9 245.13,742.9 385.04,811.2 -230.41,-545.8 -507.76,-1422.5 -687.92,-2207 -147.13,-641 -229.04,-1218.2 -165.74,-1496.3 44.98,-196.3 357.02,-758.2 664.05,-1310.4 243.74,-438.6 484.16,-870.8 587.42,-1116.3 l 11.95,-28 -23.05,-19.7 c -63.85,-53.9 -144.63,-121 -228.47,-190.76 -249.57,-207.64 -466.94,-397.79 -672.1,-598.23 l -65.24,52.25" /></g><path
         id="path236"
         style="fill:#032e48;fill-opacity:1;fill-rule:evenodd;stroke:none"
         d="m 13598.3,7103.3 c -577.3,-374 -1226.6,-646.6 -1922.2,-792.4 -47.3,922.9 -121.7,2189.6 -121.7,2189.6 l 1166.6,138.3 877.3,-1535.5" /><path
         id="path238"
         style="fill:#0b172a;fill-opacity:1;fill-rule:evenodd;stroke:none"
         d="m 12538.7,7826.4 c 13.1,-327.2 33.1,-680.1 63.4,-930.7 129.2,-1.1 240.6,5.3 240.6,5.3 396.4,71.4 520.3,304.2 520.3,304.2 0,0 -825.4,649.3 -806.8,650.1 2.5,0 -4.1,-10.5 -17.5,-28.9" /><path
         id="path240"
         style="fill:#000000;fill-opacity:1;fill-rule:evenodd;stroke:none"
         d="m 11723.8,6321.2 c -27.5,-5.9 -54.7,-12 -82.2,-17.5 -42.2,1031.5 -128.4,2190.1 -128.6,2194 l 82.8,5.8 c 0.2,-3.9 85.5,-1150.7 128,-2182.3" /><g
         transform="scale(1.00078)"
         id="g242"><path
           id="path244"
           style="fill:#000000;fill-opacity:1;fill-rule:nonzero;stroke:none"
           d="m 12531.7,7458.37 c -13.1,-147.48 -13.3,-320.95 3.3,-488.12 14.5,-145.68 42.5,-286.78 86.6,-401.39 l 6.7,-16.88 16.4,-6.69 c 4.4,-1.71 1488.6,-606.63 2136.7,-547.48 148.6,13.59 268.8,49.66 364.9,103.02 140.4,77.74 229.3,191.85 278.9,326.15 v 0 c 48.9,131.59 59.7,282.38 45.6,437.26 -27.5,302.86 -151.6,623.21 -274,844.23 -331.8,598.24 -812.3,1198.96 -1301.5,1677.09 -208.7,204.24 -429.7,397.79 -684.3,609.63 -66.9,55.41 -132.1,109.91 -204.3,170.71 107.6,245.4 338.2,659.8 571.6,1080.2 309.8,557.4 624.9,1124.6 672.4,1332.5 66.3,291.2 -16.1,881.1 -165.8,1533 -104.3,455 -241.5,941.6 -383.6,1377.2 -47.8,146.9 -245.1,742.9 -384.8,811.2 230.1,-545.8 507.8,-1422.5 687.7,-2207 147,-641 229,-1218.2 165.7,-1496.3 -44.7,-196.3 -357,-758.2 -664.1,-1310.4 -243.5,-438.6 -483.9,-870.8 -587.4,-1116.3 l -11.9,-28 23.3,-19.7 c 63.5,-53.9 144.6,-121 228.5,-190.76 249.5,-207.64 466.6,-397.79 672.1,-598.23 486.3,-474.43 964.4,-1070.77 1293.9,-1665.11 118.3,-213.23 237.7,-521.38 264.1,-811.46 13,-143.29 3.3,-281.48 -40.9,-400.89 h -0.3 c -43,-116.61 -119.9,-215.43 -241.2,-282.88 -86.3,-47.76 -195.8,-80.23 -331.7,-92.72 -589.4,-53.56 -1917.6,469.43 -2081.6,535.28 -37.8,104.12 -62.2,230.92 -75.3,362.82 -16.1,160.97 -15.5,329.24 -3,472.72 l -82.7,7.3" /></g><path
         id="path246"
         style="fill:#000000;fill-opacity:1;fill-rule:nonzero;stroke:none"
         d="m 13102.1,8175.7 c 91.5,-19.7 203.4,-43.4 321.2,-68.1 357.6,-75 772.1,-162.2 1176.3,-272.3 -248.9,198.1 -973.5,314.5 -1159.6,353.4 -108.6,23.1 -212.3,44.8 -320.4,68.4 l -17.5,-81.4" /><g
         transform="scale(1.00417)"
         id="g248"><path
           id="path250"
           style="fill:#000000;fill-opacity:1;fill-rule:nonzero;stroke:none"
           d="m 11425,15662.6 c -16.6,-129.5 -43.2,-261.2 -81.3,-389.1 -73.1,-244.5 -187.9,-476.4 -352.3,-656.2 l -99.3,-108.8 28.5,144.5 c 3.1,16 5.8,32.6 8.6,50 42.6,277.8 9.1,640.8 -55.1,938.5 -41.2,190.9 -92.1,353.1 -140.5,443.8 -22.1,41.2 -47,77.8 -73.9,84.4 -120.1,29.3 -326.4,-328.1 -378.2,-431.9 l -70.8,-1.9 c -39.1,86 -262.31,358.8 -331.48,330 -13.83,-5.8 -27.12,-34.8 -32.93,-47.8 -57.27,-123.4 -125.89,-407.6 -154.66,-691.7 -22.97,-226.3 -20.48,-450.4 34.03,-588.8 l 57.27,-145.8 -121.73,98.8 c -165.73,134.4 -291.07,321.8 -367.98,541.2 -31.82,91 -55.62,187.8 -70,288.8 -19.64,133.9 -17.43,436.3 72.49,527.6 -30.16,-249 3.6,-583.8 75.53,-789.3 55.06,-157.2 136.4,-296.4 240.43,-409 -22.69,139.8 -19.65,312.1 -2.21,484.5 32.09,316.8 113.99,637.2 177.62,749.8 6.64,11.9 14.67,21.6 23.8,29.6 37.35,32.9 84.66,30.2 135.57,5.5 40.37,-19.6 84.05,-53.9 126.45,-94 64.7,-61.2 127.8,-137.3 169.1,-191.2 64.4,107.1 296.5,465.9 450.9,405.6 94.4,-37.1 196.8,-277.5 262,-581 58.9,-272.8 92.4,-600.1 67.8,-872.1 107,149.7 186.5,325.9 241.6,510.5 82.4,276.1 110,569.6 95.4,819.7 67.2,-56.7 80.7,-333.9 65.3,-454.2" /></g><path
         id="path252"
         style="fill:#000000;fill-opacity:1;fill-rule:nonzero;stroke:none"
         d="m 10253.3,15801.5 c -0.8,0.3 -284.79,136.7 -481.77,9.5 l -22.22,35 c 122.24,78.9 271.69,69.4 378.69,46.7 -87.3,52.5 -212,103.6 -336.74,70.8 l -10.28,40.3 c 248.42,65.3 492.82,-157.2 493.42,-158.1 z m 42.8,31.7 c 0.8,1.1 240.6,358.1 570.6,275.1 l -10.2,-40 c -196.5,49.4 -359.6,-74.2 -449.8,-167.6 123.9,62.2 337,131.7 523.9,8.1 l -22.7,-34.5 c -260.7,172 -582.4,-70 -583.5,-70.8 l -28.3,29.7" /><path
         id="path254"
         style="fill:#032e48;fill-opacity:1;fill-rule:evenodd;stroke:none"
         d="M 7385.26,9738.5 C 6745.14,8978.6 4724.49,5960.8 5937.21,5849.1 c 1071.03,-98.9 1930.08,883 2281.54,1764.8 -38.9,253.4 -208.66,649 -421.47,863.2 l -412.02,1261.4" /><path
         id="path256"
         style="fill:#065674;fill-opacity:1;fill-rule:evenodd;stroke:none"
         d="M 7385.26,9738.5 C 6767.64,9005.6 4866.18,6171.7 5820.8,5871.9 c -690.96,454.3 959.07,2952.8 1602.8,3749.3 l -38.34,117.3" /><path
         id="path258"
         style="fill:#000000;fill-opacity:1;fill-rule:nonzero;stroke:none"
         d="M 5828.86,7361.6 C 6254.49,8279 7006.3,9352.8 7353.58,9765.1 l 47.79,57 23.34,-70.6 408.96,-1252.1 c 100.86,-104 191.43,-245.4 263.39,-392.9 82.79,-169.8 141.69,-348.4 162.8,-486.5 l -2.5,-21.4 C 8061.49,7107.4 7710.04,6585.4 7252.73,6231.7 c -377.01,-291.4 -825.71,-469.5 -1319.41,-424 -81.68,7.5 -150.31,27.5 -206.98,58.7 -181.42,100 -235.32,307 -201.15,578.1 32.78,258.4 146.14,577.6 303.67,917.1 z M 7369.14,9654.3 C 7007.41,9209.5 6308.12,8197.6 5904.15,7326.9 5749.96,6994.1 5639.1,6682.9 5607.43,6434 c -29.73,-236.5 12.22,-414 158.92,-494.8 46.95,-25.9 104.74,-42.5 174.47,-48.9 470.37,-43.4 899.61,127.5 1261.07,407 441.75,341.7 782.37,845.4 974.07,1321.1 -21.39,128.9 -76.4,293.9 -153.64,451.7 -70.29,143.6 -158.09,280.6 -254.49,377.8 l -10,16.4 -388.69,1190" /><path
         id="path260"
         style="fill:#0b172a;fill-opacity:1;fill-rule:evenodd;stroke:none"
         d="m 7981.76,7864.5 c 0,0 63.34,173.4 -250.33,467.6 -313.39,293.9 -152.53,-623.2 -152.53,-636.8 -0.27,-13.9 332.84,-1.7 402.86,169.2" /><path
         id="path262"
         style="fill:#ffffff;fill-opacity:1;fill-rule:evenodd;stroke:none"
         d="m 9898.78,11990.3 c 0,0 198.92,-98.4 433.72,-132.3 234.7,-34.1 493.9,58.9 493.9,58.9 l 174.5,84.8 c 0,0 -360.6,-10.3 -522.8,-15.3 -162.6,-5.3 -579.32,3.9 -579.32,3.9" /><path
         id="path264"
         style="fill:#f8b1a7;fill-opacity:1;fill-rule:evenodd;stroke:none"
         d="m 10162.4,11883 c 30.3,-238.9 209.8,-410 323.7,-406.7 90,2.5 250.6,124.7 319.2,431.2 11.4,50.3 -163.9,72.2 -323.9,67.8 -164.2,-4.5 -318.1,-36.1 -319,-92.3" /><path
         id="path266"
         style="fill:#ffffff;fill-opacity:1;fill-rule:evenodd;stroke:none"
         d="m 10441.1,11483 c 15.6,-4.8 30.8,-7.3 45,-6.7 90,2.5 250.6,124.7 319.2,431.2 4.8,20.5 -22.5,36.7 -67.2,47.8 -6.9,-41.7 -17.2,-88.1 -31.7,-134.8 -33,-105.6 -87.2,-213.9 -130.6,-262 -59.7,-66.4 -133,-54.7 -133,-54.7 -0.9,-7.2 -1.4,-14.2 -1.7,-20.8" /><path
         id="path268"
         style="fill:#000000;fill-opacity:1;fill-rule:nonzero;stroke:none"
         d="m 10785.3,11911.9 v 0 0 z m -522.8,-318.9 c -58.7,73.6 -106.2,172.8 -120.6,287.3 l -0.3,2.7 c 0.6,37.3 40.3,64.5 102.2,82.3 61.7,18 148.1,28.3 237,30.8 90.6,2.5 186.5,-3.6 251.7,-18 v 0 c 25.3,-5.6 46.7,-12.8 62,-21.4 20,-11.1 31.7,-25.6 32.2,-43.7 v 0 c 0,-3.3 -0.3,-6.9 -1.1,-10.2 v 0 c -30.3,-135.6 -78.6,-236.5 -131.1,-307.3 -71.1,-95.9 -151.4,-138.4 -207.8,-140.1 -67.5,-1.6 -154.5,50.1 -224.2,137.6 z m -79.2,290.9 c 13.6,-105.6 57.5,-197 111.7,-265.1 61.6,-77.5 135.5,-123.3 190.6,-121.9 45.8,1.3 113,38.9 175.5,123.3 49.5,67 95.1,162.3 124.2,291.7 v 0 0 0 c -0.3,1.7 -4.1,4.7 -11.1,8.6 -11.7,6.4 -29.2,12.3 -50.5,17 v 0 c -62.3,13.9 -154.2,19.4 -241.8,17.2 -85.8,-2.5 -168.3,-12.2 -226.7,-29.2 -42.8,-12.5 -70.5,-26.6 -71.9,-41.6" /><path
         id="path270"
         style="fill:#000000;fill-opacity:1;fill-rule:nonzero;stroke:none"
         d="m 10798.1,11928.6 c 34.5,13.6 76.7,32 119.2,50.3 l 11.1,5 -8.3,-1.1 c -180.9,-20 -392,-27.2 -471.8,-29.5 -65,-1.6 -185,1.1 -299.5,5.9 -48,1.9 -95,4.1 -136.7,6.6 40.3,-15.5 79.8,-31.6 118.7,-47.5 v 0 l 39.4,-16.1 -15.5,-38.6 -39.5,16.1 v 0.3 c -91.7,37.2 -188.09,76.7 -286.99,106.7 -5.28,1.1 -10,2.2 -14.45,3.3 -30.01,7.8 -46.68,15.3 -53.9,18.9 -4.44,2.5 -8.33,4.7 -11.94,7.2 v 0 l -4.17,2.5 c -9.73,5.8 -12.78,18.6 -6.95,28.3 6.12,10 18.89,13.1 28.62,7 l 4.16,-2.5 0.28,-0.3 c 3.06,-1.9 6.39,-3.9 9.17,-5.3 5.28,-2.7 18.89,-8.9 45.01,-15.5 4.17,-0.9 8.61,-2 13.06,-3.1 l 1.39,-0.3 c 14.72,-3.3 32.51,-6.6 53.62,-9.4 45.57,-6.1 149.49,-12.5 258.39,-16.9 113.6,-4.8 232.8,-7.3 297,-5.9 78.6,2.2 287.8,9.2 467.9,29.5 73.9,8.3 142.5,18.6 194.4,31.6 l 0.9,0.3 c 22.5,5.6 41.6,11.7 56.6,18.4 134.2,59.1 159.8,99.1 159.8,99.4 6.4,9.5 19.2,12.3 28.6,6.1 9.7,-6.1 12.5,-18.9 6.4,-28.3 0,-0.3 -32.5,-51.1 -178.1,-115.3 -16.9,-7.5 -38,-14.2 -62.8,-20.6 h -0.5 c -39.5,-11.1 -113.9,-43.3 -187,-75 -42.8,-18.3 -85.3,-36.7 -120.3,-50.8 l -15.3,38.6" /><path
         id="path272"
         style="fill:#000000;fill-opacity:1;fill-rule:nonzero;stroke:none"
         d="m 10491.9,11975.8 c 3.1,-96.1 -2.2,-180.8 -12.2,-258.6 -12.8,85.8 -14.4,179.7 -9.7,257.5 7.5,0.6 14.7,0.9 21.9,1.1" /><path
         id="path274"
         style="fill:#fdc4ae;fill-opacity:1;fill-rule:evenodd;stroke:none"
         d="m 8138.73,11182.4 -140.58,-64.8 -20.01,28.1 c -10.83,15.5 -20.28,31.9 -27.78,49.4 -10.56,25 -16.11,52 -14.73,79.5 l 4.17,87.8 37.23,2.2 c 51.95,3.3 106.69,4.2 157.25,-9.4 42.51,-11.4 78.63,-32.5 110.58,-62.3 l 46.95,-43.3 -58.62,-25.3 c -31.67,-13.9 -63.35,-27.8 -94.46,-41.9" /><path
         id="path276"
         style="fill:#ffebd9;fill-opacity:1;fill-rule:evenodd;stroke:none"
         d="m 8975,11016.8 c 58.62,81.1 114.18,164.4 170.02,247.5 66.96,99.5 136.42,208.4 211.71,301.5 l 6.4,8 c 24.72,30.3 76.67,100.6 114.74,109.5 8.61,1.9 17.22,3 26.11,1.9 13.62,-1.6 25.28,-8.9 33.9,-19.4 9.44,-12 14.72,-26.7 18.06,-41.4 8.33,-36.4 6.66,-79.2 1.94,-116.2 -5.28,-39.1 -14.73,-77.5 -28.06,-114.7 -10.28,-28.1 -22.51,-55 -36.4,-81.4 -63.9,-121.7 -128.91,-242.8 -193.92,-364 -163.64,-304.7 -321.45,-608.4 -472.03,-920.1 l -1.67,-4.8 c -56.95,-262 -134.47,-496.2 -288.66,-717.9 -89.19,-128.3 -196.15,-245 -300.62,-360.6 -42.22,-46.9 -84.45,-93.6 -126.13,-140.8 l -1.66,-2 -16.95,-27.2 c -67.24,-108.4 -121.97,-232.3 -170.04,-350.1 -59.73,-145.8 -112.79,-295 -164.47,-444 -29.45,-85.5 -58.62,-171.4 -87.51,-257.2 l -13.34,-40 -32.79,-1.1 c -163.08,-6.7 -400.91,35.8 -540.37,123 -115.3,72.3 -198.65,180.1 -243.94,307.9 -45.28,127.8 -53.07,278.1 -10,407.3 35.56,105.8 73.9,210.6 111.96,315.3 72.24,197.5 145.31,396.2 196.71,600.1 l 4.17,15.8 h -0.28 l 5.83,22.3 5.28,21.1 v -0.3 c 50.29,195.6 90.3,392.6 117.24,592.9 20.57,155 32.23,309.8 42.79,465.9 l 6.11,88.7 c 4.73,68.9 10.01,142.5 24.73,210 9.17,42.5 22.5,77.5 42.51,115.3 l 1.11,1.9 c 53.07,127.3 93.91,262.9 129.75,395.7 43.34,161.9 79.73,326.1 112.52,490.3 68.06,339.5 121.96,682.7 171.97,1025.2 2.23,15.6 6.67,31.1 17.78,43.1 9.17,10 22.23,14.7 35.84,14.4 16.39,-0.5 32.23,-7.2 46.4,-15.5 42.23,-24.8 77.24,-69.5 100.85,-111.7 24.17,-43.6 31.95,-100.6 35.01,-150 3.33,-53.1 1.11,-106.2 -1.39,-159.2 -6.39,-128.4 -22.5,-255.6 -38.9,-382.9 -15.83,-123.1 -31.67,-246.4 -37.78,-370.3 l -23.62,-473.7 c -1.38,-27.5 4.17,-54.5 14.73,-79.8 5.56,-13.3 12.5,-26.4 20.56,-38.6 l 25.56,-39.4 c 47.23,22.2 94.18,43.9 141.69,65.3 88.07,40 183.09,83.3 274.77,114.1 75.02,25.3 146.14,27 215.6,-13.8 53.9,-32 101.41,-84.8 142.53,-131.8 l 37.22,-42.7 -38.61,-17 c 33.06,12.5 70.57,8.1 103.07,-3.9 27.23,-10 52.79,-25.5 74.18,-45 l 27.79,-25.5" /><path
         id="path278"
         style="fill:#fdc4ae;fill-opacity:1;fill-rule:evenodd;stroke:none"
         d="m 7973.7,12855.4 c 10.84,-14.4 20.56,-29.7 28.89,-44.4 24.17,-43.6 31.95,-100.6 35.01,-150 3.33,-53.1 1.11,-106.2 -1.39,-159.2 -6.39,-128.4 -22.5,-255.6 -38.9,-382.9 -15.83,-123.1 -31.67,-246.4 -37.78,-370.3 l -23.62,-473.7 c -1.38,-27.5 4.17,-54.5 14.73,-79.8 5.56,-13.3 12.5,-26.4 20.56,-38.6 l 25.56,-39.4 c 47.23,22.2 94.18,43.9 141.69,65.3 88.07,40 183.09,83.3 274.77,114.1 75.02,25.3 146.14,27 215.6,-13.8 53.9,-32 101.41,-84.8 142.53,-131.8 l 37.22,-42.7 -38.61,-17 c 33.06,12.5 70.57,8.1 103.07,-3.9 27.23,-10 52.79,-25.5 74.18,-45 l 27.79,-25.5 -489.26,-420.7 -65.01,-13 c 10,56.1 253.1,272 253.1,272 -16.67,66.1 -134.19,75.5 -134.19,75.5 l -322.29,-143.6 -148.36,-35.6 c 10.84,81.7 345.07,253.1 345.07,284 0,30.8 -22.79,86.1 -94.19,120.3 -71.68,34.2 -141.41,-0.9 -141.41,-0.9 L 7707.54,10969 c 0,0 58.34,207.8 69.74,307 11.39,98.9 151.69,1156.3 170.58,1338.3 18.89,182 -31.95,244.5 -31.95,244.5 19.72,2.5 38.89,1.1 57.79,-3.4" /><path
         id="path280"
         style="fill:#fdc4ae;fill-opacity:1;fill-rule:evenodd;stroke:none"
         d="m 8327.93,9109.2 3.61,-59.2 c -31.67,-35.3 -63.34,-70.3 -95.02,-105.3 -42.22,-46.9 -84.45,-93.6 -126.13,-140.8 l -1.66,-2 -16.95,-27.2 c -67.24,-108.4 -121.97,-232.3 -170.04,-350.1 -59.73,-145.8 -112.79,-295 -164.47,-444 -29.45,-85.5 -58.62,-171.4 -87.51,-257.2 l -13.34,-40 -32.79,-1.1 c -115.02,-4.8 -266.15,6.1 -393.68,48.9 l 401.46,924.6 c 95.3,236.7 386.19,240 696.52,453.4" /><path
         id="path282"
         style="fill:#000000;fill-opacity:1;fill-rule:nonzero;stroke:none"
         d="m 7979.53,11323.2 -2.5,-50.6 c -1.11,-20.8 3.34,-41.6 11.67,-61.6 6.11,-14.2 14.17,-28.1 23.34,-41.2 36.95,17.3 73.62,34.2 109.19,50.1 33.06,15 65.01,29.1 95.57,42.5 -30.01,27.8 -60.57,43.9 -93.35,52.8 -41.4,11.1 -88.91,11.3 -143.92,8 z M 7110.21,9494 c 1.67,7.2 3.61,14.4 5.27,21.4 117.53,460.9 137.53,760.9 156.42,1041.3 1.95,29.7 3.89,59.2 6.11,88.6 7.23,101.7 14.45,167 25.29,215.9 10.83,50.3 25,84.7 45.28,123.1 92.52,220.6 172.25,538.4 240.6,879.3 68.63,342.8 125.58,708.7 171.7,1023.2 v 0 c 3.89,28.1 13.89,49.5 28.06,64.8 18.06,20 41.4,28.6 67.52,28 21.11,-0.8 43.89,-8 66.12,-21.1 40.56,-23.9 83.63,-69.2 116.13,-127.5 25.84,-47 36.68,-107 40.56,-167.5 3.34,-56.7 0.56,-115.9 -1.94,-164 -6.39,-131.1 -22.78,-258.9 -38.9,-385.6 -15.83,-122.8 -31.67,-245 -37.78,-367.6 l -16.95,-339.7 c 59.18,3.3 111.69,2.2 161.42,-11.2 55.56,-15 105.57,-44.4 153.64,-98.3 40,16.4 74.46,29.7 101.41,38.6 103.07,34.7 179.75,23.9 249.49,-17.2 65.29,-38.6 120.3,-102.2 186.42,-179.2 l -0.83,-0.6 c 17.22,-1.9 34.73,-6.1 51.95,-12.5 28.34,-10.3 56.4,-26.6 81.13,-47.5 44.45,63.1 93.63,136.4 142.25,208.7 80.57,119.7 159.47,236.7 213.93,304.2 l 6.66,8.1 c 41.96,52.2 91.69,113.6 137.25,124.1 14.45,3.4 28.06,3.9 40.56,2.3 25.84,-3.4 45.84,-15.6 61.13,-34.5 12.5,-15.8 21.11,-35.8 26.11,-57.8 9.17,-38.9 8.06,-86.9 2.5,-130.6 -5.83,-46.6 -17.22,-88 -30,-123.3 -12.78,-35.9 -26.95,-65 -38.62,-87 -70.57,-134.4 -133.92,-252 -194.21,-364.5 -145.02,-270 -273.1,-509 -470.08,-916 -123.64,-569.3 -297.84,-762.4 -598.45,-1095.5 -37.22,-40.8 -76.4,-84.4 -123.91,-138.1 -147.25,-221.1 -295.33,-655.9 -427.02,-1046.3 105.29,16.4 200.59,56.7 265.33,132 -44.73,-181.1 -260.89,-220.3 -357.01,-223.6 -221.71,-7.8 -456.2,62.2 -563.16,129.1 -131.14,82 -215.88,201.8 -261.44,329.6 -52.51,147.8 -52.23,307.8 -10,434.2 35.56,106.1 73.9,211.2 112.24,316.2 79.46,217 149.47,420 207.82,644 z m 825.98,1640 c -9.17,14.4 -17.5,29.5 -23.89,45.3 -12.78,30.6 -19.73,63.3 -18.06,97.5 l 23.62,473.7 c 6.38,125.6 22.22,249.2 38.34,373.7 15.83,125.3 32.22,251.4 38.34,379.5 2.5,45.3 5,100.6 1.66,154.8 -3.06,50.2 -11.39,98.3 -30,132.2 -25.01,45.3 -56.68,79.2 -85.57,96.1 -10.56,6.1 -19.73,9.5 -26.67,9.8 -1.95,0 -3.34,-0.3 -3.9,-0.9 -3.33,-3.6 -5.55,-10.3 -7.22,-20.8 v 0 c -46.12,-315.9 -103.35,-683.2 -172.25,-1027.4 -69.46,-346.2 -150.86,-669.6 -245.33,-895.5 l -1.94,-3.6 c -17.23,-32.5 -29.45,-61.4 -38.9,-104.7 -10,-46.4 -16.94,-107.8 -23.89,-204.2 -1.95,-29.5 -3.89,-58.9 -6.11,-88.7 -19.17,-286.4 -39.73,-592.8 -161.14,-1066.3 v -0.5 c -59.46,-229.5 -131.41,-439.8 -212.82,-662.4 -38.34,-105 -76.96,-210.3 -111.69,-314.2 -36.67,-109.7 -36.67,-249.8 9.73,-380.1 39.45,-111.6 113.35,-215.6 226.98,-286.7 96.97,-60.8 311.45,-123.9 516.49,-116.9 l 4.16,0.2 4.17,12.5 c 132.25,392.3 281.16,833.8 433.97,1072.5 14.72,23.3 28.89,38.6 47.79,59.7 30.84,34.4 63.07,69.7 93.62,103.9 292.01,323.4 460.93,510.4 579.84,1062.1 l 3.33,9.2 c 198.92,411.5 327.84,651.8 473.98,924.1 59.17,110.3 121.41,225.8 193.92,363.6 10.28,20.1 23.06,45.9 33.89,76.2 11.12,30.5 20.84,66.1 25.84,105.8 4.45,35 5.56,72.8 -1.11,101.4 -2.5,10.9 -5.83,19.5 -10,24.8 -1.94,2.5 -4.16,3.8 -6.67,4.1 -2.78,0.6 -6.66,0 -11.39,-1.1 -18.34,-4.2 -58.06,-53.3 -91.68,-95 l -6.67,-8.1 c -51.4,-63.6 -129.47,-179.7 -209.48,-298.6 -59.73,-88.9 -120.58,-179.5 -172.54,-251.2 -106.68,-147.2 -285.32,-286.4 -448.69,-408.1 -103.91,-77.5 -153.91,-74.8 -205.59,-49.8 34.17,25.9 66.95,50.3 101.13,75.6 162.25,120.3 351.18,260.1 465.36,404 -18.06,16.4 -38.9,28.9 -60.29,36.7 -28.06,10.2 -55.84,12.2 -76.68,3.3 -194.2,-83.1 -467.31,-248.1 -654.28,-361.5 -120.86,-71.6 -154.48,-67.8 -200.04,-22.5 35.84,20.3 91.12,53.7 157.25,93.7 185.87,112.5 455.92,276.1 654.84,362.5 -46.95,53.7 -88.63,97.3 -132.24,123.1 -48.9,28.9 -104.47,36.1 -181.15,10.3 -59.73,-20 -160.03,-62.5 -271.16,-112.5 -124.75,-56.4 -262.55,-122.6 -371.74,-178.1 -31.67,-16.1 -59.45,-32 -83.62,-48.6 -23.34,-16.2 -43.9,-33.7 -61.4,-53.1 -17.23,68.1 -2.78,119.5 107.24,175.6 57.79,29.2 123.08,61.4 190.31,93.6" /><path
         id="path284"
         style="fill:#383844;fill-opacity:1;fill-rule:evenodd;stroke:none"
         d="m 11438.8,10011.9 c 0.8,45.8 106.4,63.6 237.8,63.6 131.4,0 237.3,-17.8 238.1,-63.6 0.8,-46.2 -114.2,-47.3 -79.7,-131.2 h -158.4 v 0 h -158.4 c 34.5,83.9 -80.3,85 -79.4,131.2" /><path
         id="path286"
         style="fill:#000000;fill-opacity:1;fill-rule:nonzero;stroke:none"
         d="m 11511.3,10018.8 c -19.5,-5.3 -31.1,-7.2 -31.1,-7.8 -0.3,-5 8.6,0 17.8,-5.8 31.6,-19.5 66.4,-40.9 69.7,-83.1 h 67.2 v 0.3 h 41.7 108.9 c 3.6,41.9 38.1,63.3 69.8,82.8 9.4,5.8 18,0.8 17.7,5.8 0,0.6 -11.6,2.5 -31.1,7.8 -39.4,10.6 -98.6,15.3 -165.3,15.3 -66.7,0 -125.6,-4.7 -165.3,-15.3 z m -114.2,-6.4 c 0.8,43.6 35.8,71.4 92.8,86.7 47.2,12.5 113.6,18 186.7,18 73.1,0 139.5,-5.5 186.7,-18 57,-15.3 92,-43.1 92.8,-86.7 0.6,-41.9 -27.2,-58.9 -57.2,-77.5 -15.6,-9.7 -33.1,-20.6 -25.6,-38.3 l 23.6,-57.6 h -61.9 -116.7 v 0 h -41.7 -158.4 -61.9 l 23.6,57.3 c 7.5,18 -10,28.9 -25.6,38.6 -30,18.6 -57.7,35.6 -57.2,77.5" /><path
         id="path288"
         style="fill:#383844;fill-opacity:1;fill-rule:evenodd;stroke:none"
         d="m 9521.48,10011.9 c -0.83,45.8 -106.68,63.6 -238.1,63.6 -131.41,0 -236.98,-17.8 -237.82,-63.6 -0.83,-46.2 114.19,-47.3 79.46,-131.2 h 158.36 v 0 h 158.37 c -34.45,83.9 80.57,85 79.73,131.2" /><path
         id="path290"
         style="fill:#000000;fill-opacity:1;fill-rule:nonzero;stroke:none"
         d="m 9470.09,10099.1 c 56.95,-15.3 91.96,-43.1 92.79,-86.7 0.84,-41.9 -26.95,-58.9 -57.23,-77.5 -15.56,-9.7 -32.78,-20.6 -25.56,-38.6 l 23.62,-57.3 h -61.96 -158.37 -41.39 v 0 h -116.97 -61.95 l 23.61,57.6 c 7.5,17.7 -10,28.6 -25.56,38.3 -30,18.6 -57.79,35.6 -56.95,77.5 0.55,43.6 35.56,71.4 92.51,86.7 47.24,12.5 113.64,18 186.7,18 73.08,0 139.48,-5.5 186.71,-18 z m 10,-88.1 c 0,0.6 -11.95,2.5 -31.4,7.8 -39.45,10.6 -98.63,15.3 -165.31,15.3 -66.67,0 -125.57,-4.7 -165.3,-15.3 -19.45,-5.3 -31.12,-7.2 -31.12,-7.8 -0.28,-5 8.61,0 17.78,-5.8 31.68,-19.5 66.4,-40.9 69.74,-82.8 h 108.9 41.68 v -0.3 h 67.23 c 3.62,42.2 38.07,63.6 69.74,83.1 9.44,5.8 18.06,0.8 18.06,5.8" /><path
         id="path292"
         style="fill:#cc3750;fill-opacity:1;fill-rule:evenodd;stroke:none"
         d="m 10480,9890.2 h 968.2 c 121.2,0 405.1,-7.5 503.7,-62.5 322.6,-179.5 777.7,-1058 800.7,-1657 8.4,-215.1 -99.1,-618.7 -384.5,-514 -303.1,110.8 -617.9,782.6 -837.9,819.3 -22.2,3.6 -2078.17,3.6 -2100.4,0 -220.04,-36.7 -534.82,-708.5 -837.93,-819.3 -285.33,-104.7 -392.57,298.9 -384.52,514 23.07,599 478.15,1477.5 800.71,1657 98.62,55 382.85,62.5 503.98,62.5 H 10480" /><path
         id="path294"
         style="fill:#f25960;fill-opacity:1;fill-rule:evenodd;stroke:none"
         d="m 10480,9890.2 h 968.2 c 121.2,0 405.1,-7.5 503.7,-62.5 63.7,-35.3 132.3,-98.1 202,-180.4 -80.8,5.6 -149.7,-39.7 -155.6,-110.8 -13,-160.3 -55.3,-537.3 -168.9,-720.1 -90.6,-145.3 -317.5,-141.2 -411.5,-29.2 -129.1,154.2 -96.6,485.3 -218,672.9 -72.8,112.2 -182,177.5 -362.6,177.5 h -357.3 -357.3 c -180.3,0 -289.77,-65.3 -362.28,-177.5 -121.69,-187.6 -88.91,-518.7 -218.1,-672.9 -94.18,-112 -320.89,-116.1 -411.46,29.2 -113.91,182.8 -155.86,559.8 -169.2,720.1 -5.83,71.1 -74.74,116.4 -155.31,110.8 69.46,82.3 138.36,145.1 201.71,180.4 98.62,55 382.85,62.5 503.98,62.5 H 10480" /><path
         id="path296"
         style="fill:#383844;fill-opacity:1;fill-rule:evenodd;stroke:none"
         d="m 11364.1,9375.4 c 29.7,-157.9 63.8,-386.8 103,-482.4 22.2,-54.4 59.8,-93.9 130,-101.1 162.6,-16.4 217.9,337.3 249,564 2.8,20.6 -2,39.2 -13.6,55.6 -11.7,16.4 -27.5,25.5 -46.4,27.5 -78.4,8 -213.1,20 -354.8,23.6 -21.1,0.5 -39.5,-8.6 -53.1,-26.1 -13.3,-17.5 -18.3,-38.9 -14.1,-61.1" /><path
         id="path298"
         style="fill:#000000;fill-opacity:1;fill-rule:nonzero;stroke:none"
         d="m 11364.1,9258.7 c -7.5,41.4 -14.5,81.6 -20.3,112.8 -2.8,13.9 -2.5,27.7 0.5,40.8 3.1,13.3 8.9,25.6 17.5,36.7 v 0.2 c 8.9,11.2 19.2,20.1 30.9,25.6 11.9,6.1 25,8.9 38.9,8.3 72.2,-1.6 141.4,-5.5 202.2,-10 60.9,-4.4 114.5,-9.4 154.2,-13.6 h 0.3 c 12.5,-1.1 23.9,-5 34.2,-11.1 10.2,-5.8 19.1,-14.4 26.9,-24.7 7.2,-10.6 12.5,-21.7 15.6,-33.6 2.8,-11.7 3.3,-24.2 1.6,-37 -15.5,-114.2 -37.5,-260.3 -76.1,-376.7 -40.8,-123.9 -101.7,-214.5 -195.3,-205.1 -39.7,4.2 -70.3,17.5 -94.5,37.6 v 0 c -23.6,20 -40.2,46.1 -52.8,76.1 -31.3,76.9 -59.1,233.1 -83.8,373.7 z m 20.5,120.3 c 7.2,-38.7 13.6,-75.3 20.3,-113.1 24.4,-138.7 51.9,-292.9 81.4,-365.1 10,-24.2 23.1,-45 41.1,-60 v -0.3 c 17.8,-14.7 41.1,-24.7 71.7,-27.8 68.9,-6.9 117.2,70.9 152.2,176.5 37.3,112.8 58.7,257 74.2,369.5 1.1,7.8 0.6,15 -0.8,21.7 -1.7,6.6 -4.7,13 -8.9,18.8 -4.2,5.9 -9.2,10.3 -14.5,13.7 -5,3 -10.8,5 -17.2,5.5 v 0 c -38.6,3.9 -91.7,8.9 -153.1,13.3 -61.6,4.5 -130.5,8.4 -200.3,10 -7.2,0.3 -13.9,-1.1 -19.7,-3.8 -5.8,-3.1 -11.4,-7.8 -16.1,-13.9 -5,-6.4 -8.3,-13.6 -10,-20.9 -2,-7.5 -2,-15.8 -0.3,-24.1" /><path
         id="path300"
         style="fill:#383844;fill-opacity:1;fill-rule:evenodd;stroke:none"
         d="m 9701.24,9718.5 c 2.22,-35 3.34,-81.4 -0.83,-123.7 -3.06,-32.2 -30.01,-56.4 -62.51,-56.1 -106.69,0.8 -357.02,0.8 -546.77,-11.1 -33.06,-2.2 -61.68,21.7 -65.85,54.5 -4.17,33 -8.61,75.5 -10,113.3 -1.11,33.1 23.34,60.8 55.84,64.2 101.14,10.5 329.79,29.2 570.94,17.2 31.68,-1.4 56.96,-26.4 59.18,-58.3" /><path
         id="path302"
         style="fill:#000000;fill-opacity:1;fill-rule:nonzero;stroke:none"
         d="m 9682.63,9659.6 c -0.28,20 -1.12,40.3 -2.22,57.8 -0.56,10.5 -5.28,20 -12.23,26.9 -6.94,6.9 -16.67,11.4 -27.23,11.9 -96.13,4.8 -190.31,4.5 -275.05,2 -126.41,-3.9 -232.26,-13.1 -292.56,-19.2 -10.83,-1.1 -20.55,-6.4 -27.22,-13.9 -6.67,-7.7 -10.56,-18 -10.28,-28.9 0.83,-18.6 2.22,-38.3 3.89,-57.5 1.67,-17.5 3.89,-36.6 6.11,-54.1 v 0 c 1.39,-10.9 6.95,-20.3 14.73,-27 7.77,-6.4 18.06,-10 29.17,-9.4 75.01,4.7 160.3,7.7 242.55,9.4 124.18,2.5 241.15,2.2 305.88,1.7 10.56,0 20.56,4.1 28.07,10.8 7.5,6.7 12.5,16.1 13.61,26.7 1.94,20.5 2.78,42.2 2.78,62.5 z m 39.17,60.3 c 1.11,-17.5 1.95,-38.1 2.22,-60.3 v 0 c 0,-22.3 -0.83,-45 -2.77,-66.7 -2.23,-21.4 -12.23,-40.3 -27.23,-53.6 -14.73,-13.4 -34.45,-21.4 -56.12,-21.4 -64.18,0.5 -180.87,0.8 -304.78,-1.7 -80.85,-1.7 -165.31,-4.7 -240.88,-9.4 -21.95,-1.4 -42.51,5.8 -58.07,18.9 -15.84,13 -26.67,31.9 -29.45,53.6 h -0.28 c -1.94,15.8 -3.88,34.4 -5.83,55.8 -1.94,19.7 -3.33,40.3 -4.17,59.8 -0.55,21.9 7.23,42.2 20.56,57.5 13.34,15.2 32.51,25.8 54.18,28 60.57,6.1 167.25,15.3 295.61,19.2 85.85,2.5 181.14,2.8 278.11,-2 21.11,-1.1 40.28,-10 54.45,-23.9 13.9,-13.8 23.06,-32.7 24.45,-53.8" /><path
         id="path304"
         style="fill:#383844;fill-opacity:1;fill-rule:evenodd;stroke:none"
         d="m 9595.94,9375.4 c -29.72,-157.9 -63.62,-386.8 -103.07,-482.4 -22.23,-54.4 -59.74,-93.9 -130.02,-101.1 -162.54,-16.4 -217.83,337.3 -248.66,564 -3.06,20.6 1.66,39.2 13.33,55.6 11.67,16.4 27.51,25.5 46.4,27.5 78.35,8 213.37,20 355.06,23.6 20.84,0.5 39.18,-8.6 52.79,-26.1 13.62,-17.5 18.34,-38.9 14.17,-61.1" /><path
         id="path306"
         style="fill:#000000;fill-opacity:1;fill-rule:nonzero;stroke:none"
         d="m 9555.1,9265.9 c 6.67,37.8 13.34,74.4 20.56,113.1 1.39,8.3 1.39,16.6 -0.27,24.1 -1.67,7.3 -5.28,14.5 -10.01,20.9 -5,6.1 -10.28,10.8 -16.39,13.9 -5.84,2.7 -12.5,4.1 -19.73,3.8 -69.73,-1.6 -138.63,-5.5 -200.03,-10 -61.68,-4.4 -114.47,-9.4 -153.09,-13.3 v 0 c -6.38,-0.5 -12.22,-2.5 -17.5,-5.5 -5.28,-3.4 -10,-7.8 -14.17,-13.7 -4.45,-5.8 -7.22,-12.2 -8.89,-18.8 -1.66,-6.7 -1.94,-13.9 -1.11,-21.7 15.56,-112.5 36.95,-256.7 74.46,-369.5 35.01,-105.6 83.07,-183.4 151.97,-176.5 30.84,3.1 53.9,13.1 71.68,27.8 v 0.3 c 18.06,15 31.12,35.8 41.12,60 29.73,72.2 56.95,226.4 81.4,365.1 z m 61.4,105.6 c -6.11,-31.2 -13.06,-71.4 -20.56,-112.8 -24.72,-140.6 -52.23,-296.8 -83.9,-373.7 -12.23,-30 -29.17,-56.1 -52.79,-76.1 v 0 c -24.17,-20.1 -54.73,-33.4 -94.18,-37.6 -93.91,-9.4 -154.47,81.2 -195.59,205.1 -38.62,116.4 -60.3,262.5 -75.85,376.7 -1.95,12.8 -1.39,25.3 1.66,37 2.79,11.9 8.06,23 15.56,33.6 7.5,10.3 16.4,18.9 26.67,24.7 10.28,6.1 21.67,10 34.18,11.1 h 0.28 c 39.72,4.2 93.35,9.2 154.19,13.6 60.85,4.5 130.3,8.4 202.26,10 13.89,0.6 26.95,-2.2 38.9,-8.3 11.66,-5.5 22.23,-14.4 30.83,-25.6 v -0.2 c 8.62,-11.1 14.45,-23.4 17.51,-36.7 3.06,-13.1 3.33,-26.9 0.83,-40.8" /><path
         id="path308"
         style="fill:#383844;fill-opacity:1;fill-rule:evenodd;stroke:none"
         d="m 11259,9718.5 c -2.2,-35 -3.6,-81.4 0.6,-123.7 3.3,-32.2 30.3,-56.4 62.5,-56.1 107,0.8 357,0.8 547,-11.1 32.8,-2.2 61.7,21.7 65.9,54.5 4.2,33 8.6,75.5 9.7,113.3 1.1,33.1 -23,60.8 -55.8,64.2 -101.2,10.5 -329.8,29.2 -570.7,17.2 -31.9,-1.4 -57.2,-26.4 -59.2,-58.3" /><path
         id="path310"
         style="fill:#000000;fill-opacity:1;fill-rule:nonzero;stroke:none"
         d="m 11236.3,9659.6 c 0,22.2 0.8,42.8 1.9,60.3 1.4,21.1 10.6,40.2 24.7,53.8 13.9,13.9 33.1,22.8 54.2,23.9 97.2,4.8 192.5,4.5 278.4,2 128.1,-3.9 234.7,-13.1 295.3,-19.2 22,-2.2 40.9,-12.8 54.2,-28 13.6,-15.3 21.4,-35.6 20.5,-57.5 -0.5,-18.4 -1.9,-36.4 -3.3,-53.4 -1.9,-20.6 -4.4,-42.5 -6.9,-62.2 -2.5,-21.7 -13.6,-40.6 -29.2,-53.6 -15.8,-13.1 -36.4,-20.3 -58.3,-18.9 -75.6,4.7 -160.1,7.7 -240.9,9.4 -123.9,2.5 -240.3,2.2 -304.8,1.7 -21.4,0 -41.1,8 -56.1,21.4 -14.7,13.3 -25,32.2 -27,53.6 -2.2,21.7 -3,44.4 -2.7,66.7 z m 43.3,57.8 c -1.1,-17.5 -2,-37.8 -2,-57.8 v -0.3 c -0.2,-20.6 0.6,-42 2.5,-62.5 1.2,-10.6 6.2,-20 13.7,-26.7 7.5,-6.7 17.5,-10.8 28.3,-10.8 64.5,0.5 181.4,0.8 305.6,-1.7 82.2,-1.7 167.5,-4.7 242.6,-9.4 11.1,-0.6 21.4,3 29.1,9.4 8.1,6.7 13.6,16.1 15,27 2,17.2 4.5,37.7 6.4,60.5 1.7,17.8 2.8,35.6 3.4,51.1 0.2,10.9 -3.7,21.2 -10.3,28.9 -6.7,7.5 -16.1,12.8 -27.2,13.9 -60.3,6.1 -166.2,15.3 -292.3,19.2 -84.8,2.5 -179,2.8 -275.4,-2 -10.5,-0.5 -20,-5 -27.2,-11.9 -6.9,-6.9 -11.4,-16.4 -12.2,-26.9" /><path
         id="path312"
         style="fill:#000000;fill-opacity:1;fill-rule:nonzero;stroke:none"
         d="M 11448.2,9848.5 H 9512.04 c -72.24,0 -203.37,-2.8 -316.45,-16.7 -70.84,-8.9 -133.63,-21.7 -167.25,-40.3 -158.64,-88.3 -353.68,-359.5 -509.54,-682 -147.8,-305.9 -258.94,-656 -270.05,-940.5 -3.06,-80.6 11.11,-189.7 46.4,-285.9 20.83,-56.4 48.34,-107.5 83.62,-144.4 32.23,-33.9 71.41,-55.9 117.8,-57.6 24.45,-0.8 51.4,3.7 81.13,14.5 145.02,53.1 300.61,254.5 444.8,441.2 144.2,186.7 277.83,359.8 400.63,380.1 13.62,2.5 535.94,3.6 1056.87,3.6 520.9,0 1043.2,-1.1 1057.1,-3.6 122.6,-20.3 256.2,-193.4 400.4,-380.1 144.2,-186.7 299.8,-388.1 444.8,-441.2 30,-10.8 56.9,-15.3 81.4,-14.5 46.1,1.7 85.3,23.7 117.5,57.6 35.3,36.9 63.1,88 83.6,144.4 35.3,96.2 49.5,205.3 46.4,285.9 -10.8,284.5 -121.9,634.6 -269.7,940.5 -156.2,322.5 -350.9,593.7 -509.8,682 -33.4,18.6 -96.5,31.4 -167.3,40.3 -113.1,13.9 -243.9,16.7 -316.2,16.7 z m -968.2,83.1 h 968.2 c 74.2,0 208.7,-2.8 326.2,-17.3 80,-10 153.4,-25.5 197.5,-50.2 173.7,-96.7 381.5,-382.1 544.3,-718.8 152,-314.8 266.4,-676.8 277.8,-973.2 3.4,-90 -12.2,-211.5 -51.1,-317.6 -24.4,-66.1 -57.8,-127.2 -101.4,-173.1 -46.7,-48.9 -104.7,-80.3 -175,-83.1 -35,-1.3 -72.5,4.5 -112.8,19.2 -167.3,61.4 -330.4,272.6 -481.8,468.7 -133.9,173.1 -258.1,333.7 -348.7,349 -8.3,1.4 -525.1,1.9 -1043.2,1.9 -518.15,0 -1034.92,-0.5 -1043.25,-1.9 -90.57,-15.3 -214.76,-175.9 -348.4,-349 -151.42,-196.1 -314.78,-407.3 -482.04,-468.7 -40,-14.7 -77.78,-20.5 -112.79,-19.2 -70.29,2.8 -128.08,34.2 -174.76,83.1 -43.89,45.9 -77.24,107 -101.41,173.1 -39.17,106.1 -54.73,227.6 -51.39,317.6 11.39,296.4 125.85,658.4 278.1,973.2 162.53,336.7 370.35,622.1 543.99,718.8 44.45,24.7 117.53,40.2 197.54,50.2 117.52,14.5 252.27,17.3 326.45,17.3 H 10480" /><path
         id="path314"
         style="fill:#ffebd9;fill-opacity:1;fill-rule:evenodd;stroke:none"
         d="m 11378.5,8569.1 c -14.2,2.2 -28.3,5.3 -42.2,9.4 -38.4,11.1 -77.3,29.8 -103.7,60.3 -23.6,27 -33.6,60.3 -31.1,95.9 l 2.5,35.5 31.4,5.9 c -65,-10.3 -137.2,-7 -193.9,28.3 -17,10.8 -32.2,24.5 -43.9,40.8 -10.8,15.3 -18.6,32.6 -22.2,50.6 -7,35.6 1.9,71.7 20.8,102.3 38.1,60 205.3,114.7 271.2,136.6 47.7,16.2 96.4,30.9 145,44.8 87.5,24.7 175.9,47.2 264.5,67.8 55.3,12.5 114.2,26.4 170.3,34.4 138.6,20.3 292.5,8.6 432.3,0 102.5,-6.4 217.5,-8 329.8,1.4 l -3.6,3.6 c -20,20.3 -39.2,41.7 -58.1,63.1 -21.1,23.3 -58.6,68.1 -86.1,82.5 -52,26.9 -333.4,-1.4 -401.2,-7.5 -45.6,-4.2 -91.7,-8.9 -137.3,-11.1 l -36.6,-2 c -63.7,-3.6 -133.1,-8.6 -195.6,3.4 -70.9,13.3 -123.1,56.4 -114.8,134.2 15.6,143.9 363.2,211.1 479.8,235.8 133.1,28.1 473.2,90.1 595.4,51.2 77.6,-24.8 168.7,-99.2 227.9,-154.2 55.5,-51.7 159.2,-157.8 175.3,-233.7 7.2,-35.3 7.7,-75 8.6,-111.1 1.4,-66.4 -2.2,-125 39.7,-181.7 48.1,-68.4 88.9,-151.7 80.9,-237.3 -6.4,-66.9 -20.1,-125.6 -37.8,-190 -17.3,-62.3 -30.9,-118.7 -37.5,-183.1 -5.6,-51.7 -6.4,-104.8 -5.6,-156.7 1.1,-57.5 4.2,-114.8 8.3,-172 v -0.3 c 87.3,-55.2 227.3,-140.5 289.8,-220.6 70.6,-89.7 81.7,-257.5 77.2,-367.2 -6.1,-156.2 -47.7,-338.4 -143,-464.3 l -20.3,-26.9 -31.7,11.1 c -163.1,56.4 -323.7,126.4 -479.2,201.1 -110.9,53.1 -220.4,109.5 -328.2,168.9 -66.1,36.4 -135.8,75 -198.6,117 -85.3,57 -113.6,226.4 -131.4,322.6 -3.4,16.9 -14.7,85.5 -25,97.8 -15.6,18.3 -64.5,43.9 -86.1,54.7 -48.1,23.9 -99.2,45 -149.8,62.8 -32.8,11.4 -66.1,21.1 -98.9,31.4 -106.7,32.5 -388.1,109.7 -440.4,211.4 -24.1,47 -21.9,99.5 17,137.3 l 16.1,15.8" /><path
         id="path316"
         style="fill:#fdc4ae;fill-opacity:1;fill-rule:evenodd;stroke:none"
         d="m 12152.8,7919 c 18.3,-97.8 49.7,-234 124.2,-283.7 62.8,-42 132.5,-80.6 198.6,-117 107.8,-59.4 217.3,-115.8 328.2,-168.9 155.5,-74.7 316.1,-144.7 479.2,-201.1 l 31.7,-11.1 20.3,26.9 c 95.3,125.9 136.9,308.1 143,464.3 4.5,109.7 -6.6,277.5 -77.2,367.2 -62.5,80.1 -202.5,165.4 -289.8,220.6 v 0.3 c -4.1,57.2 -7.2,114.5 -8.3,172 -0.6,39.2 -0.3,78.6 2.2,117.8 l -45,15.6 c 0,0 -33.6,-344.3 -140.8,-506.5 -107.3,-162.6 -367,-263.1 -484,-266.5 -117,-3.3 -244.2,217.6 -244.2,217.6 l -38.1,-47.5" /><path
         id="path318"
         style="fill:#000000;fill-opacity:1;fill-rule:nonzero;stroke:none"
         d="m 12513.4,9319.2 2.3,-2.5 c -76.5,1.1 -155.4,6.1 -233.7,10.9 -155.9,9.4 -309.2,18.9 -440.9,-0.3 -74.2,-10.6 -363.7,-74.2 -588.2,-149.2 h -0.3 c -141.9,-47.2 -261.1,-101.4 -295,-155.6 -27.5,-43.6 -36.1,-91.1 -27.2,-135.3 4.7,-24.2 14.7,-47.5 29.7,-68.3 14.4,-20.3 33.6,-38.4 56.9,-53.1 36.2,-22.8 82.6,-37.5 138.4,-40.3 -0.8,-46.4 15,-85.3 42.5,-116.7 25.3,-29.2 60,-50.8 100.3,-65.8 -18.3,-35.3 -25.8,-84.5 6.4,-147.6 55.8,-108.6 301.4,-183.9 467.9,-234.7 37.7,-11.7 70.8,-21.7 96.9,-30.9 48.4,-16.9 101.1,-39.1 144.5,-60.8 36.7,-18.1 63.9,-34.2 71.4,-43.1 1.4,-1.4 7.2,-33.9 15,-76.1 21.4,-114.7 53.3,-287.3 151.1,-352.3 72.8,-48.6 283.7,-170 532.6,-289.5 141.2,-67.5 294.8,-135 443.5,-188.6 -110.9,-95.3 -223.4,-148.1 -384.8,-218.4 102.2,-1.9 299.5,62 360.9,94.2 52.7,27.8 102.2,64.4 144.7,112.5 4.2,5 8.3,9.7 12.2,14.7 103.9,128.1 156.2,324.3 163.4,504.3 6.9,168.9 -27,327.3 -95.9,407.6 -63.3,74.1 -194.2,155.6 -272.8,208.1 -3.3,50.2 -5.8,100.3 -6.7,146.7 -0.8,54.1 0.6,105.5 5.3,151.7 7.8,73 22,124.1 36.1,175.3 15.6,56.6 31.2,113.3 39.2,197.8 12,124.4 -35.5,192.8 -100.6,284.2 -17.2,24.2 -18.6,82.8 -20,140 -0.8,42.3 -1.9,84.2 -9.4,119.5 -13.9,66.7 -94.5,170.3 -188.7,258.1 -82.5,76.9 -178.3,144.2 -251.7,166.1 -131.1,39.5 -482.3,-24.4 -612,-51.6 -131.7,-27.8 -491.8,-108.4 -516,-270.9 -18,-120.9 54.5,-170.9 151.7,-189.5 67.6,-12.8 145.9,-7.8 207,-3.9 14.2,0.8 27.3,1.7 35.9,1.9 v 0 c 32.7,1.7 82.5,6.2 138.9,11.4 146.4,13.4 340.6,30.9 375.9,12.5 15.8,-8.3 41.9,-37.2 73.3,-72.5 z m 125.3,-0.3 c -21.6,22 -40,42.6 -56.9,61.5 -37.5,42.2 -68.6,76.9 -99.2,92.7 -59.2,30.9 -268.7,12 -426.8,-2.5 -54.7,-5 -103,-9.4 -134.7,-10.8 h -0.3 c -13.9,-0.6 -25.3,-1.4 -37.2,-2.2 -55.9,-3.4 -128.1,-8.1 -184.2,2.8 -47.5,8.9 -83.1,31.4 -77.5,83.9 11.6,107.2 360.9,178.3 443.7,195.6 112.2,23.8 460.6,87.8 571.5,52.5 57.8,-18.4 138,-76.7 210.6,-143.9 82.2,-76.7 151.4,-161.7 161.4,-209.5 5.8,-27.8 6.9,-65 7.8,-102.8 1.6,-79.2 -0.3,-141.4 48.3,-207.3 82,-116.7 74.2,-188.6 72.5,-206.4 -7.2,-76.1 -21.9,-128.9 -36.4,-182 -15.3,-54.7 -30.5,-109.7 -38.9,-190.6 -5.3,-48.9 -6.6,-104.2 -5.8,-162.2 1.1,-58.4 4.2,-117.6 8.3,-174.8 l 1.7,-23 19.7,-12.6 c 74.7,-48 222.6,-138.9 278.4,-210 49.5,-63.1 73.1,-193.4 67.5,-337 -6.4,-157.3 -49.4,-326.4 -133.9,-438.4 -157.3,54.2 -323.1,126.4 -474.5,199.2 -244.5,117.2 -450.4,235.3 -521.2,282.5 -65.6,43.9 -93.4,193.4 -111.7,292.9 -10.3,55.8 -18.4,98.9 -35,118.6 -15.9,19.2 -53.9,43.1 -100.9,66.4 -45.6,22.8 -102.2,46.7 -155.3,65.3 -25.8,8.9 -60.8,19.7 -100.6,31.7 -151.4,46.4 -374.8,114.7 -412.5,188.6 -22.5,43.6 -5,70.6 8,83.1 103.1,-15.3 217.8,-25.6 320.1,-34.7 98.3,-8.7 184.7,-16.4 236.7,-26.7 38,-7.8 120.6,-20.6 216.1,-34.5 144.2,-20.8 322.6,-32.7 459.6,-0.2 -148.7,35.5 -324.3,74.4 -446.5,91.4 -92.5,13.6 -172.8,26.1 -211.2,33.6 -53.6,10.8 -143.9,18.9 -246.7,28 -106.9,9.5 -227.8,20.3 -333.1,36.7 -13.9,2.2 -27.5,5.3 -40.6,8.9 -34.4,10 -63.6,25.3 -81.6,46.4 -13.9,16.1 -21.7,36.7 -19.8,62.2 5,0.9 10.3,2 15.6,2.8 114.7,22.8 258.1,50.6 382.3,70.9 123.3,20.2 229.5,34.1 273.1,29.7 20.6,-2 78.9,-8.3 150.9,-16.1 141.1,-15.3 336.1,-36.7 442.5,-45.6 107.8,-9.2 176.7,24.5 208.1,92.8 -64.7,-2.5 -127.2,-7.5 -191.7,-2.2 -97.5,8.3 -302.8,30.6 -449.2,46.7 -66.7,7.2 -120.9,13 -152,16.1 -52.5,5 -166.7,-9.2 -296.4,-30.6 -129.2,-21.1 -272,-48.6 -385.1,-71.1 -80.3,-15.8 -140.6,-5.6 -179.5,18.9 -13,8.3 -23.6,18 -31.1,28.6 -7.2,10 -12.2,21.1 -14.4,32.8 -4.2,21.7 0.2,45.5 14.7,68.3 21.1,33.6 122.2,76.2 246.4,117.8 v 0 c 218.9,72.8 500.1,134.8 572.1,145.1 122.8,17.7 271.7,8.6 422.8,-0.6 213.4,-13.1 444.5,-3.3 617.4,55.8 -63.7,29.2 -171.5,30.9 -255.4,27.5" /><path
         id="path320"
         style="fill:#000000;fill-opacity:1;fill-rule:evenodd;stroke:none"
         d="m 15768.2,5977.2 207,-153.3 7.5,-129.5 c 10.3,-176.4 21.1,-352.9 31.9,-529.3 9.8,-155.6 -18.9,-310.6 -90.8,-449.5 -63.6,-122.8 -155.9,-222 -275.9,-291.7 l -1024.1,-598.7 c -232.2,-135.6 -489.8,-80.6 -740.4,-59 l -1080.5,78.1 -1.1,3.4 -680.4,35 -1216.6,30 c -809.9,3.6 -1615.86,-12 -2424.62,-52.3 l -174.48,-8.9 -608.72,-40 v -1.1 L 6809.04,3736 c -155.03,-13.1 -298.11,7.2 -434.25,86.7 l -1024.36,597.8 c -120.29,70.1 -213.64,169.5 -277.54,292.9 -71.96,138.3 -96.42,294.8 -87.8,449.5 7.5,133.4 16.95,266.7 24.17,400.1 7.22,133.1 16.12,266.1 24.17,399.2 7.78,130.6 16.67,261.2 23.89,392 7.23,130.6 15.84,261.5 24.18,392 9.72,154.2 53.06,300.7 135.02,432.1 82.52,132.5 197.54,236.1 334.51,310.3 148.92,80.6 315.89,113.1 484.25,113.1 267.83,0 535.94,0 804.04,0 h 282.56 l 235.6,-419.5 c 115.02,45 238.37,63.3 362,63.3 268.66,0 537.05,0 805.43,0 h 275.61 c 198.37,0 396.74,0 595.11,0 h 98.35 l 73.35,-65.6 c 93.35,-83.9 186.98,-167.8 280.6,-251.4 95.85,84.7 191.67,169.2 288.07,253.4 l 72.6,63.6 h 96.6 c 199,0 398.2,0 597.1,0 h 284.8 c 412.5,0 824.8,0 1237.1,0 h 246.2 c 236.4,0 472.9,0 709.3,0 108.6,0 216.4,-13.9 319.2,-48.1 l 229,394.6 h 1021.5 c 165.6,0 330.4,-31.4 477.3,-110.1 134.2,-71.6 244.5,-172.8 320.7,-305.3 59.7,-103.9 95.3,-217.5 105.8,-336.7 v -2.5 l 0.3,-17.5 c 0.5,-165.6 -1.1,-330.9 -1.4,-496.5 l -0.3,-273.7 -83.6,-72.5" /><path
         id="path322"
         style="fill:#ffffff;fill-opacity:1;fill-rule:evenodd;stroke:none"
         d="m 7719.48,6988.8 c 268.66,0 535.94,0 805.43,0 -5,-182.3 -11.11,-365.4 -15.28,-549 -4.17,-183.6 -9.17,-368.4 -14.17,-553.7 -5.28,-187.8 -10.28,-376.5 -15.28,-565.7 -5.28,-188.9 -10.28,-379.2 -15.28,-570.6 -167.53,-7 -335.9,-15.3 -503.43,-23.6 3.06,118.3 7.23,235.8 11.4,353.4 3.88,117.5 8.05,234.4 11.11,350.8 -139.75,3.7 -279.78,6.7 -419.52,9.8 -1.12,0 -1.12,0 -1.12,0 -5,-122 -9.72,-245.1 -14.17,-367.6 -4.72,-123.1 -9.17,-247 -14.44,-370.6 -168.37,-10.9 -335.62,-22 -504.26,-33.4 5.28,118.1 10.28,236.2 15.28,354 5.28,117.2 10.28,234.5 15.56,351.2 -56.4,132.8 -111.41,265 -165.59,397.8 60.29,2.5 121.69,5 182.82,7 5,116.7 10.27,233.1 15.27,348.9 5,115.6 10.28,231.2 15.28,346.2 4.17,95.6 31.95,182.5 81.69,260.9 49.45,77.8 119.46,139.2 209.2,185.3 88.63,45.8 195.04,68.9 319.5,68.9 z m -142.8,-1193.3 c 139.75,4.2 279.78,8.4 419.52,12.2 5.01,135.9 9.73,271.5 14.17,406.5 4.72,134.2 8.34,268.4 12.51,402 -1.12,0 -2.23,0 -2.23,0 -46.95,2 -89.74,2.2 -126.41,2 -105.3,-0.9 -177.81,-10.9 -215.6,-30 -48.89,-24.8 -75.01,-93.4 -79.46,-207.3 -3.89,-97.2 -7.22,-194.5 -11.39,-291.7 -3.89,-97.5 -6.94,-195.6 -11.11,-293.7 z m 2728.52,1193.3 c 198.1,0 398.2,0 597.1,0 1.1,-178.9 2.2,-358.4 3.1,-538.7 1.1,-180.1 2.2,-361.8 3,-543.7 1.1,-183.7 2.2,-368.7 3.1,-554.3 1.1,-185.6 2.2,-372 3,-559.8 -168.3,0.8 -336.7,1.4 -505.1,0.8 0,148.1 0,295.6 0,442.6 0,147 0.9,293.7 0.9,439.8 0,144.5 0,288.9 0,432.6 0,143.9 1.1,287.3 1.1,429.8 -106.2,-105 -213.4,-210.6 -320.6,-316.5 -0.9,-117.5 -2,-235.3 -2,-353.1 0,-118.1 -1.7,-236.4 -1.9,-355.3 -0.6,-119.8 -2.3,-239.5 -2.3,-359.8 0,-120 -0.8,-240.9 -1.9,-362 -168.36,-1.4 -336.73,-4.2 -503.15,-7 0.84,121.4 1.95,242.6 3.06,363.1 0.83,120.6 3.61,241.2 5,361.2 1.39,118.9 3.05,237.6 4.17,355.9 0.83,118.4 3.05,237 5,354.5 -105.02,105.3 -210.32,210.6 -315.34,315.6 -3.06,-143.6 -5.28,-288.1 -7.22,-432.8 -1.95,-144.8 -4.73,-290.1 -7.23,-435.9 -2.5,-147 -5,-294.8 -6.94,-442.9 -2.22,-148.1 -5.28,-297 -7.22,-446.2 -168.37,-5.3 -335.9,-10 -503.15,-15.8 3.88,190.3 8.05,379.8 12.22,567.9 3.89,188.3 9.17,375.6 13.06,562.6 4.17,184.4 8.33,368.1 12.5,551.2 3.89,182.8 9.17,365 13.06,546.2 198.09,0 397.02,0 595.11,0 150.03,-134.8 300.33,-268.9 451.19,-403.7 153.09,135 305.38,269.5 458.38,403.7 z m 2129.3,-377 c -252,15.3 -503.1,30 -753.2,44.7 2,-135.8 3.9,-272.3 6.1,-408.4 2,-137.3 3.9,-274.8 7,-413.1 252.3,-3.4 506.5,-7.8 760.7,-12.3 3,-129.4 6.9,-259.2 10,-389.5 -255.1,20.9 -511.2,40.6 -765.4,58.9 1.9,-120.3 3.9,-240.9 6.1,-362 255,8.3 510.4,16.4 766.5,22.8 4.2,-132 7.2,-264.5 10.3,-396.5 -257.3,9.5 -514.6,18.1 -771.8,24.8 -168.4,3 -335.9,5.8 -503.2,8 -1.1,112 -2.2,223.7 -3,335.1 -1.1,110.6 -2.2,221.7 -3.1,332.3 -63.3,128.9 -125.6,256.7 -187.8,384.5 61.1,-0.6 122.5,-0.9 184.8,-1.1 -1.1,96.7 -2.3,193.6 -3.1,289.7 -1.1,96.5 -2.2,193.1 -3,288.7 -1.2,95.3 -3.1,190.9 -3.1,285.9 0,94.7 -1.1,189.5 -2.2,284.5 412.5,0 824.8,0 1237.1,0 4.2,-125.9 7.3,-251.2 10.3,-377 z m 2514.9,723.4 c 121.7,0 246.5,-21.1 356.2,-79.7 91.7,-49.2 167,-116.1 219.2,-207 52.3,-91.1 75.9,-188.6 74.8,-291.7 -0.9,-66.7 -3.4,-366.4 -4.2,-433.1 l -406.2,50.5 c -0.3,23.9 -11.7,230.1 -11.7,253.7 -0.2,20.6 -1.6,41.4 -2.2,62 -1.9,74.1 -15,182.2 -95.8,215 -74.5,29.7 -249.5,29.7 -328.7,28.9 -42.5,-0.6 -27.2,-5.6 -69.7,-5.6 l -0.6,-28.9 -1.4,-451.4 10.8,-7.8 c 174,-122.8 347.9,-245.9 519.9,-371.2 170.3,-123.6 339.2,-248.9 508.4,-374.2 l 7.5,-5.9 0.6,-9.4 c 10.2,-176.7 21.1,-353.4 32.2,-530.4 6.6,-109.5 -12,-217 -62.5,-315 -48.4,-93.1 -118.9,-161.5 -213.1,-207.6 -111.4,-54.7 -239.5,-62.5 -361.5,-51.4 -271.4,24.7 -543.1,47.8 -815.1,70 l -17.8,1.4 -0.9,17.8 c -6.6,153.1 -14.7,305.9 -21.9,459 -6.9,145.8 -13.6,291.7 -20,437.6 l -1.1,23.8 23.6,-2.7 c 123.9,-15 247.8,-30.3 371.5,-45.3 l 15.2,-2 2.5,-15 c 25.6,-155 51.2,-310.3 77.6,-465.3 l 4.1,-23.4 23.6,-1.9 c 44.5,-3.3 88.9,-6.7 133.1,-11.7 26.4,-3 52.8,-5.8 79.2,-7.5 55.3,-4.2 112.8,-6.1 167.8,0.6 59.7,7.2 95,45.5 110.9,101.9 20.2,73.4 16.1,175.3 11.6,251.2 -0.5,12.5 -1.1,25.3 -2.5,37.8 l -1.1,13.3 -10.8,8.1 c -174.8,132.5 -349.8,264.7 -526.5,395 -165.9,122.6 -333.1,243.7 -500.7,364.3 l -8,5.5 -0.3,9.8 c -10.3,208.3 -20.3,413.6 -26.9,621.7 -5,165.3 -12.3,330.7 -18.1,496 l -0.8,20.2 h 20.3 z M 13579.7,4693.9 c -33.6,105 -65.5,210.1 -96.9,314.3 -30.9,103.6 -64.2,207.2 -95.9,310.3 -57.2,-38.6 -112.2,-74.5 -165.3,-105.6 6.1,-164.5 12.2,-328.7 18.4,-494 -168.4,9.5 -336.8,17.5 -504.3,25.6 -6.1,192 -12.2,383.1 -17.2,572.6 -5.3,189.8 -11.4,378.7 -16.4,566.5 -5,185.9 -11.4,371.2 -16.4,555.1 -5,183.9 -10.3,367.6 -15.3,550.1 235.9,0 471.5,0 709.3,0 124.7,0 230.9,-23.1 320.6,-69.5 88.9,-45.5 158.9,-108 208.4,-185.3 50.5,-79.2 78.3,-165.6 82.5,-261.1 5,-112.8 10.3,-226.5 15.3,-339.5 5.3,-114.2 10.3,-228.7 16.4,-343.4 -64.2,-57.8 -136.7,-118.1 -218.4,-179.5 47.8,-155.9 99.5,-312.9 148.1,-471.2 48.3,-158.7 98.9,-319.2 148.9,-480.7 -173.6,12.5 -348.1,24.5 -521.8,35.3 z m -407,1920.9 c 5,-146.4 10,-293.6 15.3,-440.9 5,-148.1 10,-296.7 16.1,-445.9 119.5,67.5 235.9,153.9 349.2,259.8 -3,81.7 -5.8,163.1 -9.1,244.5 -3.9,92.8 -7.5,164.7 -13.4,216.7 -5.5,50.8 -20.2,88.9 -42.7,111.9 -23.7,24.2 -59.2,40.3 -109.2,46.2 -40.9,4.7 -96.2,6.6 -164.5,7.5 -14.2,0 -27.5,0 -41.7,0.2 z m -6797.63,319.3 h -31.95 c -13.06,0 -26.12,-0.6 -38.9,-0.6 -76.68,-1.1 -154.47,-4.2 -230.32,-15.6 -49.45,-7.2 -105.02,-22.2 -144.47,-54.4 -36.95,-29.7 -55.84,-70.6 -65.01,-116.4 -11.11,-57.2 -15.28,-116.2 -18.34,-174.2 -10.56,-187 -20.56,-374 -31.39,-561 -10.84,-189.2 -21.12,-378.4 -31.12,-567.6 -5.83,-107.2 -5,-284.2 83.91,-359.7 80.01,-67.8 221.98,-68.1 321.45,-61.2 3.88,0.3 7.77,0.6 11.66,0.9 l 26.95,1.6 1.67,27.3 c 8.33,154.2 12.5,216.7 21.11,370.9 l 1.95,35.8 -35.56,-3.9 c -33.07,-3.6 -66.13,-6.9 -99.19,-10.3 l -15,-1.4 -5.84,14.2 c -37.78,93.9 -75.29,188.4 -112.24,282.6 l -10.56,26.4 28.34,1.3 c 255.88,12.3 511.49,23.9 767.36,35.3 l 22.23,0.9 -1.11,-22.3 c -8.89,-198.6 -14.17,-305.9 -23.34,-504.5 -9.72,-205.6 -19.17,-410.9 -29.17,-616.5 l -0.83,-17.8 -17.78,-1.4 c -280.89,-22.2 -561.77,-45.8 -842.38,-71.4 -121.41,-11.1 -250.6,-2.8 -361.46,52 -94.18,46.4 -166.41,115 -215.04,208.6 -50.56,97.5 -65.01,208.1 -59.18,317 7.51,133.4 16.95,266.7 24.18,400.4 7.22,132.5 16.11,265.3 24.17,397.8 7.78,131.2 16.67,262 23.89,393.2 7.23,130 15.84,260 24.17,390 6.95,112 36.95,217 96.41,312.3 59.18,94.5 140.86,167.3 238.93,220.3 110.86,59.8 236.99,82 362.01,82 267.83,0 535.94,0 804.04,0 h 22.78 l -2.77,-22.8 c -18.07,-155.6 -36.4,-311.2 -53.35,-467 -17.78,-161.4 -36.12,-322.6 -53.9,-484 l -1.94,-18.9 -18.89,0.8 c -121.69,5 -243.11,9.8 -364.52,14.5 l -20.55,0.8 1.11,20.3 c 8.61,171.4 17.5,342.6 26.11,513.7 l 1.67,32" /><path
         id="path324"
         style="fill:#d7e0e6;fill-opacity:1;fill-rule:evenodd;stroke:none"
         d="m 8450.73,6108.3 c 2.78,110.9 5.84,221.8 8.06,332.6 3.89,165.9 9.17,331.5 13.89,497 -250.88,0 -502.04,0 -753.2,0 -101.68,0 -205.03,-16.1 -296.16,-63 -77.24,-39.7 -142.81,-93.9 -189.48,-167.5 -45.84,-72 -70.29,-150.6 -73.9,-235.9 -5,-115.3 -10.28,-230.6 -15.28,-346.2 l -3.06,-68.3 c 130.58,6.3 262.27,12.5 394.8,18.3 l 0.83,16.1 c 3.89,97 7.5,194.2 11.11,291.5 3.33,87.2 20,206.4 107.52,250.8 61.68,31.1 169.48,34.5 237.82,35.3 42.79,0.3 85.3,-0.3 128.08,-1.9 0.28,0 0.56,0 1.12,0 h 52.23 l -1.67,-52.5 c -4.17,-134 -7.5,-268.1 -12.22,-402.1 l -3.9,-116.9 c 130.03,4.7 261.44,8.9 393.41,12.7 z m 2405.77,28.7 -1.7,312.8 c -1.1,162.8 -2,325.6 -2.8,488.1 -175.9,0 -351.7,0 -527.6,0 -148.4,-130 -296.2,-260.3 -443.96,-390.8 l -33.62,-29.8 -33.61,30 c -145.87,129.8 -291.45,260.3 -437.03,390.6 -175.31,0 -350.62,0 -525.93,0 -3.89,-165.5 -8.34,-330.8 -12.22,-496.4 l -7.23,-323.1 c 130.3,3 261.16,5.8 393.13,8 1.94,136.4 3.89,272.8 6.67,409.3 l 2.5,118.9 84.18,-84.2 c 105.3,-105 210.32,-210.3 315.34,-315.6 l 15.28,-15.3 -0.28,-21.4 -1.39,-85.3 c 130.3,1.7 261.44,2.8 393.17,3.6 l 0.8,85.3 v 21.1 l 15,14.7 c 106.7,105.6 213.6,210.9 320.6,316.5 l 86.4,85.3 v -121.4 c 0,-133.4 -0.8,-266.7 -1.1,-400.1 l 38.9,0.3 c 119.5,0 238.1,-0.6 356.5,-1.1 z m 781.8,-8.1 -1.7,118.4 c -1.9,136.1 -4.2,272.2 -6.1,408.7 l -0.8,54.4 54.4,-3 c 232.8,-13.9 465.6,-27.6 698.5,-41.7 -2.2,90.8 -4.7,181.7 -7.5,272.2 -378.7,0 -757.7,0 -1136.6,0 0.8,-77.7 1.4,-155.8 1.4,-233.6 0,-95.3 2.2,-190.3 3,-285.3 l 3.1,-285.1 c 131.4,-1.4 262.2,-3 392.3,-5 z m 2584.1,1155.5 c 5.5,-154.5 12.2,-308.9 16.9,-463.7 6.4,-202.3 16.1,-404.2 26.1,-606.2 90,-64.8 180.3,-130 270.1,-195.3 246.1,-15.3 487.8,-31.7 724.3,-49.5 -26.7,19.5 -53.1,38.9 -79.8,58.1 -171.9,125.3 -345.6,248.1 -519.2,370.9 l -32.5,23 1.4,478.7 1.6,78.4 h 49.8 c 23.8,0 44.4,5.3 68.9,5.5 93.9,1.4 263.6,1.7 348.3,-32.5 103.4,-41.6 125.4,-162.2 127.9,-260.8 0.2,-20.9 1.6,-41.7 1.9,-62.6 0.8,-69.1 7.8,-139.4 10.6,-209.2 l 306.7,-38 c 1.4,125.3 1.7,250.6 3.3,376.2 1.1,94.7 -20.5,183.3 -68.1,265.8 -47.2,82.6 -115.5,143.1 -198.9,187.6 -101.4,54.2 -218.1,73.6 -332.3,73.6 z m -262.9,-1232.7 -3.6,79.4 c -5.3,113.1 -10.3,226.5 -15.3,339.5 -3.9,85.9 -28.6,164 -74.7,236.2 -46.7,72.8 -112,128.1 -188.9,167.5 -91.7,47.3 -194.8,63.6 -297.3,63.6 -218.9,0 -438.1,0 -657.1,0 4.5,-165.8 9.2,-332 13.9,-497.8 3.1,-112.5 6.4,-225.3 10,-337.9 132,-4.1 263.4,-8.9 393.4,-13.6 l -2.7,83.7 c -5,146.9 -10.3,293.9 -15.3,440.9 l -2,53.3 53.7,-0.8 c 13.6,-0.3 27.5,-0.3 41.4,-0.6 55.8,-0.3 114.1,-1.1 169.7,-7.8 51.7,-5.8 102.8,-23 139.8,-61.1 36.1,-37.2 51.3,-91.4 56.9,-141.7 7.8,-72.5 10.6,-147.2 13.3,-220.3 2.5,-55 4.5,-110 6.4,-165 120.3,-5.6 239.8,-11.4 358.4,-17.5 z m -7559.98,365 c 101.69,-3.8 203.37,-8 305.33,-11.9 16.67,151.7 33.9,303.7 50.57,455.6 15.83,144.5 32.78,289 49.73,433.4 -256.72,0 -513.43,0 -769.87,0 -116.41,0 -234.76,-20 -337.83,-75.8 -90.3,-48.6 -165.59,-115.3 -220.05,-202.5 -55.01,-88.1 -82.51,-185.3 -88.9,-288.4 -8.06,-130 -16.67,-260.1 -23.9,-390.1 -7.22,-130.8 -16.39,-262 -24.17,-393.1 l -0.27,-5.9 c 138.63,11.4 278.94,22.5 421.46,33.4 l 2.5,43.3 c 10.56,187 20.56,374 31.12,561 3.33,60.5 7.78,121.4 19.45,181.1 11.39,57.5 36.39,108.6 82.79,146.1 47.23,38.4 109.74,56.4 168.92,65.3 78.35,11.7 157.81,15 236.99,16.1 13.33,0 26.4,0.6 39.73,0.6 h 85.57 l -4.45,-85.6 c -8.33,-160.8 -16.67,-321.7 -24.72,-482.6" /></g></g></svg>